<?xml version="1.0" standalone="no"?>
<!DOCTYPE svg PUBLIC "-//W3C//DTD SVG 20010904//EN"
 "http://www.w3.org/TR/2001/REC-SVG-20010904/DTD/svg10.dtd">
<svg version="1.0" xmlns="http://www.w3.org/2000/svg"
 width="1200.000000pt" height="1200.000000pt" viewBox="0 0 1200.000000 1200.000000"
 preserveAspectRatio="xMidYMid meet">

<g transform="translate(0.000000,1200.000000) scale(0.100000,-0.100000)"
fill="#000000" stroke="none">
<path d="M5555 10920 c-637 -56 -1207 -216 -1763 -494 -739 -370 -1361 -902
-1875 -1605 -126 -172 -173 -250 -277 -458 -421 -842 -581 -1758 -475 -2723
118 -1063 566 -1973 1369 -2776 393 -392 755 -655 1226 -890 246 -122 578
-253 682 -269 107 -16 230 43 269 129 17 38 19 73 19 514 0 259 -3 472 -6 472
-3 0 -61 -9 -127 -21 -106 -18 -148 -21 -327 -16 -324 8 -529 46 -695 129
-206 103 -323 228 -409 436 -70 167 -155 311 -289 490 -83 111 -143 165 -245
222 -117 66 -166 107 -196 161 l-27 50 31 31 31 31 122 -6 c187 -8 294 -45
450 -154 129 -89 239 -207 350 -376 114 -173 210 -278 321 -352 166 -110 290
-141 531 -132 164 6 337 38 453 84 51 21 62 29 62 48 0 39 47 207 80 283 44
104 106 204 169 273 29 33 52 61 50 63 -2 1 -89 14 -194 29 -416 59 -685 143
-983 310 -154 86 -257 164 -386 292 -227 226 -355 440 -470 789 -83 250 -124
501 -133 821 -11 397 43 678 191 981 71 145 110 209 204 337 l65 89 -26 77
c-62 184 -88 413 -68 604 17 173 64 378 121 529 20 54 22 56 63 61 66 7 203
-10 312 -38 221 -57 571 -221 805 -376 l151 -100 152 35 c387 89 598 111 1057
111 451 0 703 -27 1048 -111 116 -28 146 -32 164 -23 12 6 67 41 122 77 151
98 592 305 781 367 160 52 335 67 397 34 22 -12 90 -220 125 -389 24 -111 27
-148 27 -330 1 -225 -9 -296 -65 -463 l-29 -88 66 -77 c313 -366 450 -819 416
-1383 -21 -340 -71 -596 -168 -850 -152 -401 -352 -664 -660 -868 -187 -124
-496 -270 -674 -319 -162 -45 -581 -122 -664 -122 -28 0 -28 0 28 -60 30 -33
69 -81 87 -106 46 -67 114 -218 139 -306 46 -167 50 -246 50 -1028 0 -705 1
-737 20 -778 51 -112 112 -152 232 -152 83 0 157 22 404 120 788 312 1451 823
1982 1528 500 662 805 1392 916 2187 34 239 40 349 41 670 0 336 -8 454 -46
715 -114 784 -439 1553 -927 2200 -139 184 -246 306 -426 485 -373 372 -771
654 -1261 895 -512 252 -1010 398 -1585 466 -157 18 -748 27 -905 14z"/>
<path d="M2830 4140 c-26 -26 -17 -45 34 -70 51 -24 60 -25 80 -4 25 25 20 58
-13 77 -38 23 -76 22 -101 -3z"/>
<path d="M3042 3978 c-21 -21 -13 -46 24 -88 40 -44 62 -50 87 -22 24 26 22
37 -19 82 -37 41 -69 51 -92 28z"/>
<path d="M3207 3742 c-27 -29 -20 -59 23 -102 60 -60 102 -63 131 -8 11 21 -5
58 -45 101 -30 33 -84 37 -109 9z"/>
<path d="M3446 3469 c-36 -28 -33 -55 12 -99 41 -41 102 -61 131 -43 22 14 25
67 6 97 -21 31 -75 66 -102 66 -11 0 -32 -9 -47 -21z"/>
<path d="M4565 3275 c-38 -20 -55 -42 -55 -71 0 -40 25 -54 100 -54 60 0 71 3
84 22 24 34 20 75 -8 93 -36 24 -87 28 -121 10z"/>
<path d="M3771 3256 c-7 -8 -15 -30 -18 -50 -5 -34 -4 -37 33 -53 22 -9 61
-17 88 -17 41 -1 51 3 69 26 28 37 17 75 -28 94 -45 18 -129 18 -144 0z"/>
<path d="M4177 3205 c-9 -9 -17 -32 -17 -50 0 -29 6 -37 32 -51 38 -20 122
-15 145 9 20 20 20 64 -1 85 -24 24 -137 29 -159 7z"/>
</g>
</svg>
