<svg width="129" height="25" viewBox="0 0 129 25" fill="none" xmlns="http://www.w3.org/2000/svg">
<path d="M14.3668 0H0.457985C0.204102 0 0 0.204102 0 0.457985V22.7748C0 23.0287 0.204102 23.2328 0.457985 23.2328H6.01851C3.91776 22.7449 1.60792 20.6193 1.60792 17.5727C1.60792 14.7302 3.66388 11.7831 7.39745 11.7831C8.861 11.7831 9.84667 12.3457 10.5884 12.8385C10.7427 12.9331 10.8274 12.9978 10.8274 12.9978C10.7527 12.948 10.673 12.8933 10.5884 12.8385C10.1105 12.5398 8.94065 11.9325 7.39745 11.9325C4.61469 11.9325 2.39446 14.5908 2.39446 17.5727C2.39446 19.5291 4.07208 21.9285 6.90959 21.9285C8.13918 21.9285 9.78195 21.2166 10.4789 19.7481C11.0165 18.6081 10.5685 17.508 9.50318 17.508C8.22879 17.508 7.79072 16.6667 7.79072 15.7507C7.79072 15.0836 8.32337 14.1627 9.43846 13.9486C12.1565 13.4309 13.187 16.1191 13.187 17.5727C13.187 18.2497 12.8236 22.506 8.29848 23.2328H14.3618C14.6157 23.2328 14.8198 23.0287 14.8198 22.7748V0.457985C14.8198 0.204102 14.6157 0 14.3618 0H14.3668Z" fill="#07428A"/>
<path d="M21.4058 15.3226H22.4163V18.9765L23.8351 15.3226H24.8606L23.3771 18.9765L24.98 22.8644H23.8351L22.4163 18.9765V22.8644H21.4058V15.3176V15.3226Z" fill="#606362"/>
<path d="M28.4648 20.3853C28.4648 22.0928 27.9321 22.949 26.8718 22.949C25.8115 22.949 25.2788 22.0828 25.2788 20.3505C25.2788 18.6181 25.8065 17.7419 26.8668 17.7419C27.1406 17.7419 27.3796 17.7967 27.5787 17.8963C27.7778 17.9958 27.9471 18.1601 28.0765 18.3791C28.2059 18.5982 28.3055 18.872 28.3702 19.2055C28.4349 19.539 28.4648 19.9323 28.4648 20.3903V20.3853ZM27.499 20.3604C27.499 19.6983 27.4542 19.2354 27.3646 18.9715C27.275 18.7077 27.1207 18.5783 26.8917 18.5783C26.6627 18.5783 26.5084 18.7077 26.4138 18.9715C26.3242 19.2304 26.2794 19.6834 26.2794 20.3355C26.2794 20.9877 26.3242 21.4357 26.4138 21.6946C26.5084 21.9534 26.6677 22.0878 26.8917 22.0878C27.1157 22.0878 27.27 21.9584 27.3597 21.6995C27.4493 21.4606 27.499 21.0126 27.499 20.3654V20.3604Z" fill="#606362"/>
<path d="M29.3309 17.8116H30.2818V18.4438C30.441 18.175 30.6003 17.9908 30.7547 17.8863C30.909 17.7818 31.1181 17.722 31.3769 17.7071V18.6828C31.3122 18.6728 31.2575 18.6679 31.2127 18.6679C30.8791 18.6679 30.6402 18.7525 30.4958 18.9267C30.3564 19.096 30.2867 19.3897 30.2867 19.8128V22.8694H29.3359V17.8116H29.3309Z" fill="#606362"/>
<path d="M33.9755 21.1569H34.8467C34.777 22.3517 34.2941 22.9441 33.3881 22.9441C33.1193 22.9441 32.8853 22.8943 32.6961 22.7947C32.502 22.6951 32.3427 22.5358 32.2182 22.3268C32.0938 22.1127 31.9992 21.8489 31.9395 21.5203C31.8797 21.1967 31.8499 20.8085 31.8499 20.3604C31.8499 19.4693 31.9743 18.8073 32.2232 18.3791C32.4721 17.951 32.8604 17.737 33.3831 17.737C34.3937 17.737 34.9014 18.628 34.9014 20.4052V20.5197H32.7658C32.7658 21.6 32.9799 22.1376 33.403 22.1376C33.7863 22.1376 33.9805 21.809 33.9805 21.1569H33.9755ZM33.9456 19.8527C33.9058 19.32 33.8461 18.9715 33.7664 18.8073C33.6818 18.6231 33.5474 18.5285 33.3582 18.5285C33.169 18.5285 33.0297 18.6231 32.95 18.8073C32.8704 18.9715 32.8106 19.32 32.7708 19.8527H33.9506H33.9456Z" fill="#606362"/>
<path d="M38.6001 17.8116V22.8694H37.6493V22.2222C37.5198 22.501 37.3854 22.6902 37.256 22.7947C37.1266 22.8993 36.9523 22.949 36.7333 22.949C36.3201 22.949 36.0164 22.735 35.8223 22.3069C35.6282 21.8787 35.5336 21.2017 35.5336 20.2858C35.5336 19.3698 35.6282 18.7674 35.8223 18.3543C36.0164 17.9411 36.3201 17.737 36.7333 17.737C37.1116 17.737 37.4153 17.956 37.6493 18.3841V17.8116H38.6001ZM36.4993 20.3206C36.4993 20.9827 36.5441 21.4506 36.6288 21.7145C36.7184 21.9783 36.8777 22.1077 37.1017 22.1077C37.3107 22.1077 37.4601 21.9733 37.5547 21.6995C37.6493 21.4058 37.6941 20.9578 37.6941 20.3455C37.6941 19.7332 37.6493 19.2802 37.5547 18.9865C37.4601 18.7127 37.3107 18.5783 37.1017 18.5783C36.8826 18.5783 36.7233 18.7077 36.6337 18.9666C36.5441 19.2055 36.4993 19.6585 36.4993 20.3206Z" fill="#606362"/>
<path d="M44.7531 15.457V16.373C44.4942 16.2485 44.2752 16.1838 44.1009 16.1838C43.862 16.1838 43.6529 16.2435 43.4787 16.363C43.3044 16.4825 43.165 16.6667 43.0506 16.9106C42.9361 17.1595 42.8564 17.4681 42.8016 17.8514C42.7469 18.2298 42.722 18.6778 42.722 19.1955C42.722 21.0573 43.1999 21.9882 44.1507 21.9882C44.315 21.9882 44.5191 21.9385 44.7531 21.8339V22.7648C44.5091 22.9042 44.2353 22.9689 43.9317 22.9689C42.4084 22.9689 41.6467 21.7244 41.6467 19.2304C41.6467 17.8813 41.8309 16.8807 42.2043 16.2236C42.5776 15.5665 43.1451 15.2379 43.9118 15.2379C44.1955 15.2379 44.4743 15.3126 44.7531 15.462V15.457Z" fill="#606362"/>
<path d="M45.5546 17.8116H46.5054V21.1918C46.5104 21.5054 46.5552 21.7294 46.6398 21.8588C46.7244 21.9932 46.8638 22.058 47.0579 22.058C47.2521 22.058 47.4064 21.9982 47.4861 21.8837C47.5657 21.7593 47.6105 21.5452 47.6105 21.2416V17.8166H48.5613V20.8383C48.5613 21.5452 48.5116 22.0181 48.407 22.2521C48.188 22.7151 47.7399 22.9441 47.053 22.9441C46.5153 22.9441 46.132 22.8097 45.903 22.5359C45.674 22.2571 45.5595 21.7991 45.5595 21.1519V17.8116H45.5546Z" fill="#606362"/>
<path d="M49.6216 14.5759H50.5724V22.8694H49.6216V14.5759Z" fill="#606362"/>
<path d="M51.7074 16.3979H52.6583V17.8116H53.166V18.5584H52.6583V22.8694H51.7074V18.5584H51.1947V17.8116H51.7074V16.3979Z" fill="#606362"/>
<path d="M53.8381 17.8116H54.7889V21.1918C54.7939 21.5054 54.8387 21.7294 54.9234 21.8588C55.008 21.9932 55.1474 22.058 55.3415 22.058C55.5357 22.058 55.69 21.9982 55.7696 21.8837C55.8493 21.7593 55.8941 21.5452 55.8941 21.2416V17.8166H56.8449V20.8383C56.8449 21.5452 56.7951 22.0181 56.6906 22.2521C56.4715 22.7151 56.0235 22.9441 55.3365 22.9441C54.7989 22.9441 54.4156 22.8097 54.1866 22.5359C53.9576 22.2571 53.8431 21.7991 53.8431 21.1519V17.8116H53.8381Z" fill="#606362"/>
<path d="M57.9052 17.8116H58.856V18.4438C59.0153 18.175 59.1746 17.9908 59.3289 17.8863C59.4832 17.7818 59.6923 17.722 59.9511 17.7071V18.6828C59.8864 18.6728 59.8317 18.6679 59.7869 18.6679C59.4533 18.6679 59.2144 18.7525 59.07 18.9267C58.9306 19.096 58.8609 19.3897 58.8609 19.8128V22.8694H57.9101V17.8116H57.9052Z" fill="#606362"/>
<path d="M62.5497 21.1569H63.4209C63.3512 22.3517 62.8683 22.9441 61.9623 22.9441C61.6935 22.9441 61.4595 22.8943 61.2704 22.7947C61.0762 22.6951 60.9169 22.5358 60.7925 22.3268C60.668 22.1127 60.5734 21.8489 60.5137 21.5203C60.4539 21.1967 60.4241 20.8085 60.4241 20.3604C60.4241 19.4693 60.5485 18.8073 60.7974 18.3791C61.0463 17.951 61.4346 17.737 61.9573 17.737C62.9679 17.737 63.4756 18.628 63.4756 20.4052V20.5197H61.34C61.34 21.6 61.5541 22.1376 61.9772 22.1376C62.3606 22.1376 62.5547 21.809 62.5547 21.1569H62.5497ZM62.5198 19.8527C62.48 19.32 62.4203 18.9715 62.3406 18.8073C62.256 18.6231 62.1216 18.5285 61.9324 18.5285C61.7433 18.5285 61.6039 18.6231 61.5242 18.8073C61.4446 18.9715 61.3848 19.32 61.345 19.8527H62.5298H62.5198Z" fill="#606362"/>
<path d="M65.8203 15.3226H69.1407V16.2087H68.0007V22.8644H66.9902V16.2087H65.8203V15.3226Z" fill="#606362"/>
<path d="M71.2913 21.1569H72.1625C72.0928 22.3517 71.6099 22.9441 70.7039 22.9441C70.4351 22.9441 70.2061 22.8943 70.0119 22.7947C69.8178 22.6951 69.6585 22.5358 69.534 22.3268C69.4096 22.1127 69.315 21.8489 69.2553 21.5203C69.1955 21.1967 69.1656 20.8085 69.1656 20.3604C69.1656 19.4693 69.2901 18.8073 69.539 18.3791C69.7879 17.951 70.1762 17.737 70.6989 17.737C71.7095 17.737 72.2172 18.628 72.2172 20.4052V20.5197H70.0816C70.0816 21.6 70.2957 22.1376 70.7188 22.1376C71.1021 22.1376 71.2963 21.809 71.2963 21.1569H71.2913ZM71.2614 19.8527C71.2216 19.32 71.1619 18.9715 71.0822 18.8073C70.9976 18.6231 70.8582 18.5285 70.674 18.5285C70.4898 18.5285 70.3455 18.6231 70.2658 18.8073C70.1862 18.9715 70.1214 19.32 70.0866 19.8527H71.2664H71.2614Z" fill="#606362"/>
<path d="M75.0995 17.9162V18.862C74.97 18.7027 74.8107 18.6231 74.6315 18.6231C74.1188 18.6231 73.8599 19.1806 73.8599 20.2907C73.8599 21.4705 74.1138 22.0629 74.6265 22.0629C74.7709 22.0629 74.9252 21.9982 75.0995 21.8738V22.7549C74.8506 22.8843 74.6017 22.954 74.3478 22.954C73.3472 22.954 72.8494 22.1028 72.8494 20.3953C72.8494 19.4893 72.9738 18.8172 73.2177 18.3891C73.4617 17.956 73.845 17.7419 74.3677 17.7419C74.6166 17.7419 74.8605 17.8017 75.0995 17.9212V17.9162Z" fill="#606362"/>
<path d="M75.8363 14.5759H76.7871V18.399C77.051 17.956 77.3944 17.737 77.8126 17.737C78.2308 17.737 78.5095 17.8963 78.6838 18.2198C78.7784 18.404 78.8281 18.7575 78.8281 19.2802V22.8694H77.8773V19.4892C77.8773 19.1458 77.8325 18.9068 77.7529 18.7624C77.6732 18.6181 77.5388 18.5484 77.3496 18.5484C77.2451 18.5484 77.1605 18.5683 77.0858 18.6031C77.0161 18.638 76.9564 18.7027 76.9116 18.7824C76.8668 18.867 76.8369 18.9715 76.817 19.1059C76.7971 19.2403 76.7871 19.4046 76.7871 19.5988V22.8694H75.8363V14.5759Z" fill="#606362"/>
<path d="M79.8834 17.8116H80.8342V18.3941C81.0981 17.956 81.4416 17.737 81.8597 17.737C82.2779 17.737 82.5567 17.8963 82.7309 18.2198C82.8255 18.404 82.8753 18.7575 82.8753 19.2802V22.8694H81.9244V19.4893C81.9244 19.1458 81.8796 18.9068 81.8 18.7625C81.7203 18.6181 81.5859 18.5484 81.3968 18.5484C81.2922 18.5484 81.2076 18.5683 81.1329 18.6032C81.0632 18.638 81.0035 18.7027 80.9587 18.7824C80.9139 18.867 80.884 18.9715 80.8641 19.1059C80.8442 19.2404 80.8342 19.4046 80.8342 19.5988V22.8694H79.8834V17.8116Z" fill="#606362"/>
<path d="M86.9224 20.3853C86.9224 22.0928 86.3898 22.949 85.3294 22.949C84.2691 22.949 83.7365 22.0828 83.7365 20.3505C83.7365 18.6181 84.2641 17.7419 85.3245 17.7419C85.5983 17.7419 85.8372 17.7967 86.0363 17.8963C86.2355 17.9958 86.4047 18.1601 86.5341 18.3791C86.6636 18.5982 86.7631 18.872 86.8278 19.2055C86.8926 19.539 86.9224 19.9323 86.9224 20.3903V20.3853ZM85.9567 20.3604C85.9567 19.6983 85.9119 19.2354 85.8223 18.9715C85.7327 18.7077 85.5783 18.5783 85.3493 18.5783C85.1204 18.5783 84.966 18.7077 84.8715 18.9715C84.7818 19.2304 84.737 19.6834 84.737 20.3355C84.737 20.9877 84.7818 21.4357 84.8715 21.6946C84.966 21.9534 85.1253 22.0878 85.3493 22.0878C85.5734 22.0878 85.7277 21.9584 85.8173 21.6995C85.9069 21.4606 85.9567 21.0126 85.9567 20.3654V20.3604Z" fill="#606362"/>
<path d="M87.7887 14.5759H88.7395V22.8694H87.7887V14.5759Z" fill="#606362"/>
<path d="M92.7718 20.3853C92.7718 22.0928 92.2391 22.949 91.1788 22.949C90.1185 22.949 89.5858 22.0828 89.5858 20.3505C89.5858 18.6181 90.1135 17.7419 91.1738 17.7419C91.4476 17.7419 91.6866 17.7967 91.8857 17.8963C92.0848 17.9958 92.2541 18.1601 92.3835 18.3791C92.5129 18.5982 92.6125 18.872 92.6772 19.2055C92.7419 19.539 92.7718 19.9323 92.7718 20.3903V20.3853ZM91.806 20.3604C91.806 19.6983 91.7612 19.2354 91.6716 18.9715C91.582 18.7077 91.4277 18.5783 91.1987 18.5783C90.9697 18.5783 90.8154 18.7077 90.7208 18.9715C90.6312 19.2304 90.5864 19.6834 90.5864 20.3355C90.5864 20.9877 90.6312 21.4357 90.7208 21.6946C90.8154 21.9534 90.9747 22.0878 91.1987 22.0878C91.4227 22.0878 91.577 21.9584 91.6667 21.6995C91.7563 21.4606 91.806 21.0126 91.806 20.3654V20.3604Z" fill="#606362"/>
<path d="M95.5844 17.8116H96.5352V23.0337C96.5352 23.6609 96.4754 24.094 96.351 24.3329C96.122 24.776 95.669 25 94.982 25C94.529 25 94.1756 24.8706 93.9217 24.6167C93.6678 24.3628 93.5334 24.0094 93.5334 23.5713V23.417H94.4344C94.4344 23.9446 94.6335 24.2085 95.0268 24.2085C95.2409 24.2085 95.3902 24.1388 95.4649 24.0044C95.5445 23.875 95.5844 23.6161 95.5844 23.2278V22.2571C95.3852 22.72 95.0866 22.949 94.6783 22.949C94.2701 22.949 93.9515 22.7449 93.7524 22.3367C93.5533 21.9285 93.4537 21.2863 93.4537 20.4152C93.4537 19.4893 93.5483 18.8122 93.7375 18.3692C93.9267 17.951 94.2353 17.7419 94.6734 17.7419C94.8824 17.7419 95.0467 17.7917 95.1762 17.8913C95.3056 17.9908 95.44 18.1701 95.5844 18.4239V17.8166V17.8116ZM95.6142 20.3853C95.6142 19.1756 95.4051 18.5733 94.987 18.5733C94.7879 18.5733 94.6435 18.7077 94.5539 18.9815C94.4643 19.2553 94.4145 19.6884 94.4145 20.2857C94.4145 20.9229 94.4593 21.3859 94.5589 21.6896C94.6584 21.9683 94.8177 22.1028 95.0467 22.1028C95.2608 22.1028 95.4101 21.9783 95.4898 21.7294C95.5694 21.5004 95.6142 21.0474 95.6142 20.3803V20.3853Z" fill="#606362"/>
<path d="M97.1077 17.8116H98.163L98.9048 21.3361L99.7759 17.8116H100.722L98.6558 24.9353H97.6752L98.4517 22.4612L97.1077 17.8116Z" fill="#606362"/>
<path d="M103.415 15.3226H104.425V22.8694H103.415V15.3226Z" fill="#606362"/>
<path d="M105.531 17.8116H106.481V18.3941C106.745 17.956 107.089 17.737 107.507 17.737C107.925 17.737 108.204 17.8963 108.378 18.2198C108.473 18.404 108.522 18.7575 108.522 19.2802V22.8694H107.572V19.4893C107.572 19.1458 107.527 18.9068 107.447 18.7625C107.368 18.6181 107.233 18.5484 107.044 18.5484C106.939 18.5484 106.855 18.5683 106.78 18.6032C106.71 18.638 106.651 18.7027 106.606 18.7824C106.561 18.867 106.531 18.9715 106.511 19.1059C106.491 19.2404 106.481 19.4046 106.481 19.5988V22.8694H105.531V17.8116Z" fill="#606362"/>
<path d="M111.534 17.9261V18.8023C111.305 18.633 111.066 18.5484 110.817 18.5484C110.733 18.5484 110.653 18.5633 110.583 18.5932C110.514 18.6231 110.449 18.6629 110.394 18.7127C110.339 18.7624 110.3 18.8222 110.27 18.8919C110.24 18.9616 110.225 19.0362 110.225 19.1159C110.225 19.3548 110.444 19.6436 110.882 19.9721C111.056 20.1115 111.206 20.236 111.32 20.3505C111.44 20.4699 111.529 20.5794 111.589 20.684C111.713 20.8881 111.778 21.147 111.778 21.4606C111.778 21.9136 111.649 22.277 111.385 22.5458C111.126 22.8146 110.778 22.949 110.334 22.949C110.066 22.949 109.792 22.8694 109.513 22.7101V21.809C109.782 22.0082 110.041 22.1127 110.28 22.1127C110.708 22.1127 110.922 21.9036 110.922 21.4855C110.922 21.3311 110.882 21.1967 110.802 21.0822C110.768 21.0275 110.708 20.9628 110.633 20.8881C110.554 20.8134 110.459 20.7338 110.344 20.6442C109.951 20.3405 109.682 20.0816 109.543 19.8726C109.404 19.6585 109.339 19.3996 109.339 19.096C109.339 18.6878 109.463 18.3592 109.712 18.0954C109.966 17.8365 110.295 17.7121 110.703 17.7121C110.992 17.7121 111.265 17.7867 111.539 17.9311L111.534 17.9261Z" fill="#606362"/>
<path d="M112.664 16.3979H113.615V17.8116H114.123V18.5584H113.615V22.8694H112.664V18.5584H112.151V17.8116H112.664V16.3979Z" fill="#606362"/>
<path d="M115.228 15.6661C115.397 15.6661 115.542 15.7258 115.666 15.8503C115.79 15.9747 115.85 16.1191 115.85 16.2933C115.85 16.4675 115.79 16.6169 115.666 16.7413C115.542 16.8658 115.392 16.9255 115.218 16.9255C115.044 16.9255 114.894 16.8658 114.77 16.7413C114.65 16.6219 114.591 16.4725 114.591 16.2883C114.591 16.1191 114.65 15.9747 114.775 15.8503C114.909 15.7258 115.059 15.6661 115.228 15.6661ZM114.795 17.8116H115.746V22.8694H114.795V17.8116Z" fill="#606362"/>
<path d="M116.876 16.3979H117.826V17.8116H118.334V18.5584H117.826V22.8694H116.876V18.5584H116.363V17.8116H116.876V16.3979Z" fill="#606362"/>
<path d="M119.006 17.8116H119.957V21.1918C119.962 21.5054 120.007 21.7294 120.092 21.8588C120.176 21.9932 120.316 22.058 120.51 22.058C120.714 22.058 120.858 21.9982 120.938 21.8837C121.017 21.7593 121.062 21.5452 121.062 21.2416V17.8166H122.013V20.8383C122.013 21.5452 121.963 22.0181 121.859 22.2521C121.64 22.7151 121.192 22.9441 120.505 22.9441C119.967 22.9441 119.584 22.8097 119.355 22.5359C119.126 22.2571 119.011 21.7991 119.011 21.1519V17.8116H119.006Z" fill="#606362"/>
<path d="M123.163 16.3979H124.114V17.8116H124.622V18.5584H124.114V22.8694H123.163V18.5584H122.65V17.8116H123.163V16.3979Z" fill="#606362"/>
<path d="M127.23 21.1569H128.101C128.032 22.3517 127.544 22.9441 126.643 22.9441C126.374 22.9441 126.145 22.8943 125.951 22.7947C125.757 22.6951 125.597 22.5358 125.473 22.3268C125.348 22.1127 125.254 21.8489 125.194 21.5203C125.134 21.1967 125.104 20.8085 125.104 20.3604C125.104 19.4693 125.229 18.8073 125.478 18.3791C125.727 17.951 126.115 17.737 126.638 17.737C127.648 17.737 128.156 18.628 128.156 20.4052V20.5197H126.02C126.02 21.6 126.23 22.1376 126.658 22.1376C127.041 22.1376 127.235 21.809 127.235 21.1569H127.23ZM127.2 19.8527C127.16 19.32 127.101 18.9715 127.021 18.8073C126.936 18.6231 126.802 18.5285 126.613 18.5285C126.424 18.5285 126.284 18.6231 126.205 18.8073C126.125 18.9715 126.065 19.32 126.025 19.8527H127.205H127.2Z" fill="#606362"/>
<path opacity="0.3" d="M11.4994 13.4757C12.0221 13.9984 15.2728 17.8614 11.1409 21.9932C9.53301 23.6011 5.77953 24.1288 3.3104 21.6646C1.29925 19.6535 0.67201 16.114 3.3104 13.4757C4.46034 12.3257 5.67997 12.0868 6.59594 11.9125C6.59594 11.9125 4.85859 12.1415 3.41992 13.5852C1.45357 15.5515 1.76221 19.0013 3.87292 21.1121C5.25683 22.496 8.13915 23.0087 10.1453 20.9976C11.0165 20.1264 11.6736 18.4587 11.126 16.9305C10.7029 15.7457 9.60769 15.2827 8.856 16.0394C7.95496 16.9404 7.04895 16.6567 6.40179 16.0095C5.92888 15.5366 5.65508 14.5061 6.29228 13.5702C7.85042 11.2803 10.4789 12.4551 11.5043 13.4856L11.4994 13.4757Z" fill="white"/>
<path opacity="0.3" d="M7.35751 11.7881C8.09427 11.7881 13.1271 12.2212 13.1271 18.0655C13.1271 20.3355 10.8472 23.3671 7.35751 23.3671C4.51502 23.3671 1.56799 21.3112 1.56799 17.5776C1.56799 15.9548 2.25995 14.9193 2.78265 14.1477C2.78265 14.1477 1.71734 15.5416 1.71734 17.5776C1.71734 20.3604 4.37564 22.5806 7.35751 22.5806C9.31391 22.5806 11.7133 20.903 11.7133 18.0655C11.7133 16.8359 11.0015 15.1931 9.53294 14.4962C8.39296 13.9585 7.2928 14.4066 7.2928 15.4719C7.2928 16.7463 6.4515 17.1843 5.53553 17.1843C4.86847 17.1843 3.94752 16.6517 3.73346 15.5366C3.21574 12.8136 5.90391 11.7881 7.35751 11.7881Z" fill="white"/>
<path d="M20.3256 2.73794V1.77219H22.7698V1.25945C22.7698 1.07028 22.6255 0.925914 22.501 0.925914H22.3218V0.462952H24.1637V1.77219H26.6279V2.73794H25.3933C25.7019 3.11628 25.8911 3.60413 25.8911 4.11687C25.8911 5.3614 24.8009 6.39186 23.4568 6.39186C22.1127 6.39186 21.0225 5.35642 21.0225 4.11687C21.0225 3.60413 21.2117 3.11628 21.5203 2.73794H20.3107H20.3256ZM24.0442 9.27915C24.0442 9.37872 24.109 9.44343 24.2085 9.44343H29.087V10.4191H23.5912C22.9889 10.4191 22.7002 10.1404 22.7002 9.54299V8.15411C22.7002 7.92013 22.5558 7.71106 22.2671 7.71106H22.058V7.16844H24.0442V9.27915ZM22.4015 4.11189C22.4015 4.77896 22.8794 5.42113 23.4767 5.42113C24.0741 5.42113 24.552 4.78891 24.552 4.13181C24.552 3.4747 24.0741 2.80763 23.4867 2.80763C22.8993 2.80763 22.3965 3.43985 22.3965 4.10692L22.4015 4.11189ZM30.3863 3.23575V4.21146H28.9775V7.7011H27.6683V1.52826C27.6683 1.31918 27.5339 1.06032 27.2352 1.06032H27.0261V0.517711H28.9825V3.23575H30.3913H30.3863Z" fill="#121212"/>
<path d="M32.5319 5.30665V4.33094H39.4515C39.7302 3.90781 39.785 3.46476 39.785 2.59857V2.03107C39.785 1.8867 39.7402 1.83194 39.561 1.83194H33.5524V0.851257H41.0046C41.0843 0.851257 41.1142 0.886104 41.1142 0.960775V2.71804C41.1142 3.64895 41.0046 3.98248 40.7458 4.32597H42.1098V5.30167H38.0576V6.93449H40.9101C40.9897 6.93449 41.0196 6.96933 41.0196 7.04401V10.5336H39.6655V8.02469C39.6655 7.96993 39.6307 7.92513 39.556 7.92513H33.7366V6.93449H36.5891V5.30167H32.522L32.5319 5.30665Z" fill="#121212"/>
<path d="M44.7631 6.44656V5.48081H54.3359V6.44656H50.3833V8.35815H48.9297V6.44656H44.7631ZM46.0524 1.94636C46.0524 1.70244 45.908 1.49336 45.6193 1.49336H45.4102V0.950745H52.9321C53.1312 0.950745 53.2557 1.10507 53.2557 1.33904V3.77332C53.2557 4.35078 52.9321 4.6644 52.3995 4.6644H46.9236C46.3909 4.6644 46.0574 4.35576 46.0574 3.77332V1.95134L46.0524 1.94636ZM47.5757 9.27909C47.5757 9.37866 47.6404 9.44337 47.73 9.44337H53.3055V10.4191H47.1077C46.5203 10.4191 46.2316 10.1403 46.2316 9.54293V8.25361C46.2316 8.00968 46.0773 7.81056 45.7985 7.81056H45.5745V7.26795H47.5757V9.27909ZM51.8867 2.09073C51.8867 1.96628 51.8519 1.93641 51.7075 1.93641H47.5956C47.4512 1.93641 47.4263 1.98121 47.4263 2.10068V3.52442C47.4263 3.67874 47.4711 3.67874 47.6056 3.67874H51.7025C51.8369 3.67874 51.8817 3.63394 51.8817 3.50948V2.08575L51.8867 2.09073Z" fill="#121212"/>
<path d="M64.1677 1.52831C64.1677 1.31923 64.0233 1.06037 63.7246 1.06037H63.5156V0.517761H65.472V4.0074H66.8957V4.98311H65.472V10.5387H64.1727V7.97494C63.7396 8.21887 63.2069 8.25372 62.2312 8.25372H57.1984V7.27801H59.9512V6.1679C59.0303 5.91401 58.3533 5.13743 58.3533 4.19159C58.3533 3.74854 58.5076 3.32541 58.7864 2.99187H57.6663V2.06097H59.9313V1.47356C59.9313 1.22963 59.787 1.06037 59.553 1.06037H59.4534V0.582476H61.2854V2.06097H63.5405V2.99187H62.4204C62.6892 3.32541 62.8435 3.73859 62.8435 4.19159C62.8435 5.1225 62.1765 5.89908 61.2655 6.1679V7.27801H62.6643C63.421 7.27801 63.864 7.16849 64.1727 6.97933V1.52831H64.1677ZM60.5934 3.08148C60.0608 3.08148 59.6476 3.62409 59.6476 4.18164C59.6476 4.73918 60.0608 5.2818 60.5934 5.2818C61.1261 5.2818 61.5393 4.73918 61.5393 4.18164C61.5393 3.62409 61.1261 3.08148 60.5934 3.08148Z" fill="#121212"/>
<path d="M69.31 7.06893C69.2652 7.02413 69.2752 6.98928 69.3448 6.97933C71.3908 6.53628 73.4418 5.29175 73.4418 2.18044V2.1456H69.8875V1.16989H74.7311C74.8108 1.16989 74.8307 1.1898 74.8307 1.27941V2.05599C74.8307 5.71987 72.0778 7.40744 69.9123 7.74097L69.31 7.06395V7.06893ZM76.8319 10.5337V1.52831C76.8319 1.31923 76.6875 1.06037 76.3988 1.06037H76.1748V0.517761H78.1162V10.5337H76.8269H76.8319Z" fill="#121212"/>
<path d="M81.4167 5.88409V4.9283H90.9896V5.88409H86.9375V6.61587H89.6804C89.7451 6.61587 89.7799 6.63578 89.7799 6.74032V8.85103C89.7799 8.97051 89.7252 9.06011 89.5709 9.06011H84.2841V9.49321C84.2841 9.55792 84.304 9.58281 84.3837 9.58281H89.8944V10.5386H83.8062C83.174 10.5386 82.94 10.2947 82.94 9.62762V9.11487C82.94 8.8809 82.7857 8.67182 82.507 8.67182H82.3974V8.12921H88.4607V7.55175H82.507V6.62085H85.4739V5.88907H81.4217L81.4167 5.88409ZM82.5518 4.33092L81.7951 3.5195C81.7602 3.48465 81.7602 3.40998 81.8299 3.40998C83.2288 3.40998 85.4938 3.0416 85.4938 1.38887V1.34407C85.4938 1.10014 85.3494 0.901018 85.1254 0.901018H85.0159V0.34845H86.9723V1.38389C86.9723 3.03662 89.3817 3.405 90.6362 3.405C90.7009 3.405 90.7009 3.48465 90.671 3.51452L89.9143 4.32595C88.849 4.32595 87.0022 3.93766 86.3251 2.89226C86.2803 2.81261 86.1907 2.80265 86.136 2.89226C85.4689 3.92272 83.6718 4.32595 82.5468 4.32595L82.5518 4.33092Z" fill="#121212"/>
<path d="M101.145 1.52831C101.145 1.31923 101.001 1.06037 100.712 1.06037H100.488V0.517761H102.454V7.70115H101.145V4.86861H99.1238C98.6459 5.6452 97.7698 6.15794 96.7692 6.15794C95.2459 6.15794 94.0063 4.94826 94.0063 3.46977C94.0063 1.99128 95.2509 0.7816 96.7692 0.7816C97.8146 0.7816 98.7156 1.3491 99.1935 2.17049H101.15V1.52831H101.145ZM95.3255 3.46977C95.3255 4.41561 95.9677 5.20215 96.7692 5.20215C97.5707 5.20215 98.2128 4.41561 98.2128 3.46977C98.2128 2.52393 97.5806 1.73739 96.7692 1.73739C95.9578 1.73739 95.3255 2.52393 95.3255 3.46977ZM97.4711 9.2792C97.4711 9.37877 97.5358 9.44348 97.6254 9.44348H102.559V10.4192H97.0181C96.4157 10.4192 96.127 10.1404 96.127 9.54305V7.97495C96.127 7.74097 95.9827 7.53189 95.6939 7.53189H95.4699V6.98928H97.4711V9.2792ZM101.145 3.12628H99.5121C99.5221 3.2358 99.532 3.3503 99.532 3.46977C99.532 3.61414 99.5221 3.76846 99.4872 3.91282H101.14V3.12628H101.145Z" fill="#121212"/>
<path d="M105.964 6.39185V5.41614H112.749C112.948 5.02785 113.057 4.4952 113.057 3.79329V2.19532C113.057 2.041 113.013 1.98126 112.833 1.98126H106.79V1.00555H114.277C114.357 1.00555 114.387 1.0404 114.387 1.11507V3.91774C114.387 4.4952 114.277 4.99799 114.033 5.41614H115.313V6.39185H111.325V10.5336H109.946V6.39185H105.959H105.964Z" fill="#121212"/>
<path d="M127.643 8.46774V9.44345H118.07V8.46774H122.202V6.95938C122.202 6.71545 122.048 6.5462 121.824 6.5462H121.669V6.01354H123.626V8.46774H127.648H127.643ZM122.147 1.93648C122.147 1.60295 121.938 1.43867 121.714 1.43867H121.545V0.851257H123.621V2.1605C123.621 4.26125 125.453 5.20211 127.24 5.20211C127.33 5.20211 127.32 5.24691 127.275 5.28176L126.543 6.13799C125.353 6.13799 123.611 5.49582 122.969 4.27121C122.889 4.14675 122.844 4.14675 122.77 4.27121C122.113 5.49582 120.35 6.12804 119.19 6.12804L118.459 5.2718C118.414 5.23696 118.404 5.19215 118.493 5.19215C120.236 5.19215 122.147 4.27121 122.147 1.97133V1.93648Z" fill="#121212"/>
<path d="M4.94336 5.71485H3.91289L2.73308 4.03723L2.34977 4.4305V5.71485H1.56323V1.88171H2.34977V3.45977L3.82826 1.88171H4.86371L3.29561 3.45977L4.94336 5.71485Z" fill="white"/>
<path d="M8.63197 4.41055C8.56228 4.82871 8.38804 5.16722 8.09932 5.43106C7.81556 5.6949 7.44718 5.82433 7.00413 5.82433C6.45157 5.82433 6.01847 5.64512 5.70485 5.29167C5.39123 4.93823 5.23193 4.45037 5.23193 3.82811C5.23193 3.16105 5.41114 2.64333 5.76957 2.27993C6.08319 1.96631 6.47646 1.80701 6.95933 1.80701C7.60648 1.80701 8.07442 2.01609 8.37311 2.43922C8.53739 2.67817 8.62699 2.91712 8.63695 3.15607H7.83548C7.78569 2.97188 7.716 2.83249 7.63635 2.73791C7.49199 2.57363 7.27295 2.48901 6.9892 2.48901C6.70545 2.48901 6.4665 2.60848 6.30222 2.84245C6.13297 3.07642 6.04834 3.40995 6.04834 3.83807C6.04834 4.26618 6.13795 4.58976 6.31716 4.80382C6.49637 5.01788 6.72038 5.1274 6.99418 5.1274C7.26797 5.1274 7.48701 5.03779 7.63635 4.8536C7.716 4.75404 7.7857 4.6047 7.84045 4.41055H8.63197Z" fill="white"/>
<path d="M12.0271 1.88171V2.55873H10.8772V5.71485H10.0707V2.55873H8.92078V1.88171H12.0271Z" fill="white"/>
<path d="M13.2268 1.88171H12.4303V5.71485H13.2268V1.88171Z" fill="white"/>
</svg>
