<svg width="30" height="30" viewBox="0 0 30 30" fill="none" xmlns="http://www.w3.org/2000/svg">
<path d="M24.8082 6.99338C24.8082 5.99634 24.0002 5.19128 23.0069 5.19128C22.0135 5.19128 21.2047 5.99634 21.2047 6.99338C21.2047 7.98675 22.0135 8.79181 23.0069 8.79181C24.0002 8.79181 24.8082 7.98675 24.8082 6.99338Z" fill="url(#paint0_linear_0_453)"/>
<path d="M27.2082 21.0605C27.1415 22.5232 26.8969 23.3178 26.6938 23.8456C26.4209 24.5454 26.0955 25.0458 25.5677 25.5707C25.0458 26.0955 24.5454 26.4202 23.8456 26.69C23.3178 26.8961 22.5202 27.1415 21.0576 27.2112C19.4764 27.2809 19.0079 27.2957 14.9981 27.2957C10.9921 27.2957 10.5199 27.2809 8.93867 27.2112C7.47611 27.1415 6.68217 26.8961 6.15432 26.69C5.45084 26.4202 4.95418 26.0955 4.42933 25.5707C3.90076 25.0458 3.57535 24.5454 3.30625 23.8456C3.1031 23.3178 2.85479 22.5232 2.79175 21.0605C2.71469 19.4793 2.70057 19.0034 2.70057 15.0019C2.70057 10.9921 2.71469 10.5199 2.79175 8.93867C2.85479 7.4761 3.1031 6.68216 3.30625 6.14987C3.57535 5.45083 3.90076 4.9534 4.42933 4.42855C4.95418 3.90448 5.45084 3.57901 6.15432 3.30625C6.68217 3.09942 7.47611 2.85774 8.93867 2.78807C10.5199 2.71836 10.9921 2.70056 14.9981 2.70056C19.0079 2.70056 19.4764 2.71836 21.0576 2.78807C22.5202 2.85774 23.3178 3.09942 23.8456 3.30625C24.5454 3.57901 25.0458 3.90448 25.5677 4.42855C26.0955 4.9534 26.4209 5.45083 26.6938 6.14987C26.8969 6.68216 27.1415 7.4761 27.2082 8.93867C27.2816 10.5199 27.2994 10.9921 27.2994 15.0019C27.2994 19.0034 27.2816 19.4793 27.2082 21.0605ZM29.9088 8.81563C29.8354 7.21735 29.5834 6.1254 29.209 5.17434C28.828 4.18764 28.3172 3.35145 27.481 2.51525C26.6486 1.68279 25.8124 1.172 24.8257 0.786543C23.8709 0.415871 22.7826 0.160843 21.1836 0.091177C19.5846 0.0140629 19.0739 -5.72205e-06 14.9981 -5.72205e-06C10.9261 -5.72205e-06 10.4117 0.0140629 8.81269 0.091177C7.21735 0.160843 6.12986 0.415871 5.17062 0.786543C4.18765 1.172 3.35145 1.68279 2.51898 2.51525C1.68279 3.35145 1.17201 4.18764 0.787269 5.17434C0.416596 6.1254 0.16457 7.21735 0.0874558 8.81563C0.0177914 10.4146 0 10.9261 0 15.0019C0 19.0739 0.0177914 19.5846 0.0874558 21.1836C0.16457 22.7789 0.416596 23.8701 0.787269 24.8257C1.17201 25.8086 1.68279 26.6485 2.51898 27.481C3.35145 28.3135 4.18765 28.828 5.17062 29.2127C6.12986 29.5833 7.21735 29.8354 8.81269 29.9088C10.4117 29.9822 10.9261 30 14.9981 30C19.0739 30 19.5846 29.9822 21.1836 29.9088C22.7826 29.8354 23.8709 29.5833 24.8257 29.2127C25.8124 28.828 26.6486 28.3135 27.481 27.481C28.3172 26.6485 28.828 25.8086 29.209 24.8257C29.5834 23.8701 29.8354 22.7789 29.9088 21.1836C29.9822 19.5846 30 19.0739 30 15.0019C30 10.9261 29.9822 10.4146 29.9088 8.81563Z" fill="url(#paint1_linear_0_453)"/>
<path d="M14.9982 19.9976C12.2383 19.9976 9.99878 17.7617 9.99878 15.0018C9.99878 12.2375 12.2383 9.99879 14.9982 9.99879C17.7588 9.99879 20.0013 12.2375 20.0013 15.0018C20.0013 17.7617 17.7588 19.9976 14.9982 19.9976ZM14.9982 7.2945C10.7438 7.2945 7.29822 10.7475 7.29822 15.0018C7.29822 19.2525 10.7438 22.7018 14.9982 22.7018C19.2525 22.7018 22.7018 19.2525 22.7018 15.0018C22.7018 10.7475 19.2525 7.2945 14.9982 7.2945Z" fill="url(#paint2_linear_0_453)"/>
<defs>
<linearGradient id="paint0_linear_0_453" x1="0.270965" y1="29.6897" x2="27.5017" y2="2.45909" gradientUnits="userSpaceOnUse">
<stop stop-color="#FFD521"/>
<stop offset="0.05" stop-color="#FFD521"/>
<stop offset="0.501119" stop-color="#F50000"/>
<stop offset="0.95" stop-color="#B900B4"/>
<stop offset="0.950079" stop-color="#B900B4"/>
<stop offset="1" stop-color="#B900B4"/>
</linearGradient>
<linearGradient id="paint1_linear_0_453" x1="0.270596" y1="29.7272" x2="27.5237" y2="2.47411" gradientUnits="userSpaceOnUse">
<stop stop-color="#FFD521"/>
<stop offset="0.05" stop-color="#FFD521"/>
<stop offset="0.501119" stop-color="#F50000"/>
<stop offset="0.95" stop-color="#B900B4"/>
<stop offset="0.950079" stop-color="#B900B4"/>
<stop offset="1" stop-color="#B900B4"/>
</linearGradient>
<linearGradient id="paint2_linear_0_453" x1="0.277685" y1="29.7279" x2="27.5242" y2="2.48142" gradientUnits="userSpaceOnUse">
<stop stop-color="#FFD521"/>
<stop offset="0.05" stop-color="#FFD521"/>
<stop offset="0.501119" stop-color="#F50000"/>
<stop offset="0.95" stop-color="#B900B4"/>
<stop offset="0.950079" stop-color="#B900B4"/>
<stop offset="1" stop-color="#B900B4"/>
</linearGradient>
</defs>
</svg>
