<svg width="80" height="46" viewBox="0 0 80 46" fill="none" xmlns="http://www.w3.org/2000/svg">
<path d="M38.9345 32.0794C38.9345 31.9588 38.8356 31.8612 38.7135 31.8612H35.6123C35.4902 31.8612 35.3913 31.9588 35.3913 32.0794C35.3913 32.2 35.4902 32.2977 35.6123 32.2977H36.8139V42.7959C36.8139 42.8867 36.8884 42.9602 36.9814 42.9602H38.767C38.8589 42.9602 38.9345 42.8867 38.9345 42.7959V32.1403C38.9345 32.1311 38.9345 32.1219 38.9322 32.1128C38.9333 32.1024 38.9345 32.0909 38.9345 32.0794Z" fill="#40E9CB"/>
<path d="M50.9518 34.4972C48.908 34.4972 47.3144 36.9001 47.3144 40.1104C47.3144 43.3208 48.9092 45.7237 50.9518 45.7237C52.9944 45.7237 54.5892 43.3208 54.5892 40.1104C54.5892 36.9001 52.9944 34.4972 50.9518 34.4972ZM50.9518 45.239C49.9142 45.239 49.136 43.0532 49.136 40.1104C49.136 37.1677 49.9154 34.9819 50.9518 34.9819C51.9883 34.9819 52.7676 37.1677 52.7676 40.1104C52.7676 43.0532 51.9883 45.239 50.9518 45.239Z" fill="#40E9CB"/>
<path d="M30.8954 38.0717V35.1255H34.5468C34.6689 35.1255 34.7678 35.0279 34.7678 34.9073C34.7678 34.7867 34.6689 34.6891 34.5468 34.6891H29.1552C29.0633 34.6891 28.9877 34.7626 28.9877 34.8533V38.6242C28.9877 38.715 29.0622 38.7896 29.1552 38.7896H30.8047C30.8175 38.7896 30.8326 38.7873 30.8419 38.7816C30.8535 38.7735 30.8849 38.7506 30.8907 38.7471C31.3851 38.3956 33.2765 37.8087 33.1928 40.9467C33.1428 42.8373 31.7353 44.8968 29.5589 45.2586C29.3925 45.2861 29.3669 45.5124 29.5239 45.5744L30.5197 45.8903C30.5395 45.8983 30.5616 45.9041 30.5837 45.9018C32.5612 45.7237 35.2889 43.3473 35.2889 40.9467C35.2889 37.9086 32.1389 37.7467 30.8966 38.0717" fill="#FF504F"/>
<path d="M46.5257 43.6803H42.4451C43.7805 39.7647 46.9945 38.0338 46.8491 35.2587C46.5851 31.9335 41.9182 32.1311 40.5688 34.8452C40.5165 34.9521 40.5491 35.0761 40.6654 35.1037C40.6654 35.1037 41.4913 34.9934 41.7728 34.9222C41.8844 34.8946 41.988 34.8188 42.1159 34.5569C43.1686 32.4102 45.5475 32.7846 45.0345 36.0972C44.6145 38.8068 41.3982 40.8467 40.1326 43.786C40.1326 43.786 40.1012 43.8572 40.1012 43.8986C40.1012 44.0192 40.2001 44.1168 40.3222 44.1168H46.5292C46.6514 44.1168 46.7502 44.0192 46.7502 43.8986C46.7502 43.7779 46.6514 43.6803 46.5292 43.6803" fill="#FF504F"/>
<path d="M61.3755 7.9082C60.7125 7.88638 60.3809 7.87604 59.7156 7.85881C59.7179 5.40883 59.7202 2.95886 59.7214 0.508879C59.7214 0.232064 59.5388 0.00463867 59.3143 0.00463867C58.1731 0.00463867 57.0332 0.00693925 55.892 0.00808786C55.664 0.00808786 55.4791 0.238958 55.4791 0.51807C55.4768 5.72011 55.4733 10.9233 55.4698 16.1253C55.4698 16.3091 55.6536 16.4814 55.8816 16.5113C56.9913 16.6583 58.0987 16.8191 59.2038 16.9948C59.4294 17.0304 59.7074 16.9167 59.7074 16.7192C59.7098 14.1164 59.7133 11.5137 59.7156 8.91094C60.3821 8.93621 60.7136 8.94999 61.3767 8.97985C61.6733 8.99364 61.9129 8.76621 61.9129 8.46757C61.9129 8.17008 61.6733 7.91624 61.3778 7.90705" fill="#40E9CB"/>
<path d="M59.8401 19.2621C59.847 19.2322 59.8505 19.2001 59.8505 19.1679C59.8505 18.9026 59.6098 18.6419 59.312 18.5867C53.9623 17.6207 48.6172 17.0763 43.1838 16.8707C42.8825 16.8615 42.6371 17.0384 42.6359 17.267C42.6359 17.4955 42.879 17.6908 43.1803 17.7011C47.062 17.8551 50.9414 18.1365 54.7823 18.7257C54.8184 20.305 54.3647 22.3966 52.5943 22.9055C49.5839 22.4828 46.5711 22.1899 43.5351 22.0279C43.2326 22.013 42.9872 22.2221 42.986 22.4966C42.986 22.7722 43.2291 23.01 43.5316 23.0249C43.6968 23.033 43.7794 23.0376 43.9457 23.0456C42.8011 24.4722 42.1183 26.6752 42.0915 28.4521C42.0857 28.8024 42.3358 29.1137 42.6394 29.1275C48.3101 29.4433 54.0297 30.3772 59.6307 31.9714C59.9285 32.0564 60.1704 31.829 60.1704 31.466C60.1704 31.1042 59.9296 30.7447 59.6319 30.6586C55.5815 29.5226 51.1926 28.6359 47.0096 28.1661C46.77 26.8268 46.6421 24.3527 47.839 23.3408C51.1426 23.6888 54.3496 24.2275 57.5753 25.0097C57.8742 25.0844 58.1173 24.9018 58.1173 24.6054C58.1173 24.3091 57.8754 24.0127 57.5764 23.9404C56.6621 23.7198 56.2038 23.6153 55.2849 23.4178C57.1518 22.8607 59.5295 21.3388 59.8401 19.261" fill="#FF504F"/>
<path d="M16.2445 0.00114973C12.4547 0.00114973 8.6649 0.0011472 4.8751 0.00574163C4.84718 0.00574163 4.81927 0.00918941 4.79251 0.0149324C4.76925 0.00918941 4.74481 0.00574163 4.72039 0.00574163C3.50248 0.00689024 2.28458 0.00803632 1.06668 0.0103335C0.859628 0.0103335 0.693283 0.245798 0.693283 0.534098C0.696773 6.85258 0.700264 13.1711 0.702591 19.4884C0.702591 19.7744 0.872424 19.9547 1.08181 19.8916C2.30552 19.5229 3.53622 19.176 4.77273 18.8475C4.98677 18.7912 5.16009 18.5339 5.15893 18.272C5.14148 12.6335 5.12519 6.99386 5.10891 1.35535C7.2574 1.34042 9.40588 1.33009 11.5555 1.3232C11.5834 5.84411 11.8696 13.3836 8.20659 16.8076C7.85995 16.8811 7.68779 16.9178 7.34348 16.9936C7.05616 17.0568 6.82584 17.3807 6.827 17.715C6.82817 18.0504 7.06081 18.264 7.34813 18.1939C9.78161 17.6162 12.2232 17.1016 14.6823 16.6422C14.9778 16.5882 15.2162 16.3148 15.215 16.0288C15.2139 15.7428 14.9731 15.5487 14.6776 15.5969C13.1724 15.8404 11.6707 16.1138 10.1748 16.4056C14.1879 12.6048 16.2654 6.1393 16.7715 0.809766C16.7796 0.762673 16.7854 0.71443 16.7854 0.663891C16.7854 0.300931 16.5423 0 16.2434 0" fill="#8500FF"/>
<path d="M15.4779 18.2847C10.1748 19.3897 5.61259 20.6577 0.500188 22.4346C0.223339 22.5323 0 22.9239 0 23.3076C0 23.6912 0.223339 23.9152 0.500188 23.8107C2.56609 23.0365 4.6471 22.3186 6.75139 21.649C6.76186 24.4573 6.77116 27.2668 6.78047 30.0763C6.78047 30.3405 6.95844 30.4749 7.17481 30.3772C8.17751 29.9327 9.18254 29.5008 10.1957 29.0793C10.4156 28.9897 10.5924 28.7129 10.5912 28.4602C10.5807 25.8184 10.5691 23.1778 10.5575 20.536C12.3977 20.0306 13.6168 19.7182 15.4803 19.307C15.7769 19.2415 16.0165 18.9624 16.0154 18.6821C16.0154 18.403 15.7734 18.2238 15.4768 18.2847" fill="#40E9CB"/>
<path d="M16.1526 32.1219C12.3581 33.5163 8.69979 35.1474 5.12402 37.0219C5.11471 33.6117 5.10424 30.2015 5.09493 26.7912C5.09493 26.5259 4.9158 26.3835 4.69711 26.4731C3.54551 26.9452 2.40438 27.4391 1.27256 27.9548C1.05736 28.0536 0.882876 28.3648 0.884039 28.6497C0.886365 32.4401 0.888692 36.2305 0.891018 40.0209C0.891018 40.0335 0.893347 40.0439 0.893347 40.0554C0.89102 40.0806 0.891018 40.1047 0.891018 40.1289C0.891018 40.5102 1.12367 40.6768 1.41099 40.5022C6.11858 37.6927 11.0042 35.3323 16.1584 33.4325C16.4597 33.3245 16.7028 32.9397 16.7016 32.5779C16.7016 32.2161 16.455 32.014 16.1538 32.1219" fill="#FF504F"/>
<path d="M40.0535 13.0493C39.1962 13.0493 39.2416 13.0516 38.3831 13.0653C38.4192 8.00344 38.4506 5.56035 38.4738 0.49844C38.4738 0.22622 38.2912 0.00109863 38.0644 0.00109863C36.7395 0.00109863 35.5727 0.00109387 34.249 0.00339108C34.0187 0.00339108 33.8314 0.230815 33.829 0.505332C33.7883 8.98549 33.7139 17.5587 33.6685 26.0389C31.8667 26.1916 29.8415 26.4765 27.935 26.7648C27.935 26.0814 27.9384 25.012 27.9384 24.734C27.9384 24.5066 27.7535 24.3539 27.5243 24.3872C26.1796 24.5916 24.8757 24.7765 23.5484 25.0844C23.3216 25.1372 23.1378 25.3669 23.1378 25.5989C23.1378 26.3903 23.139 26.8383 23.1401 27.6871C21.7024 28.0443 20.3018 28.4199 18.899 28.8242C18.6012 28.915 18.3616 29.2618 18.3616 29.6007C18.3616 29.9407 18.6035 30.1451 18.9013 30.0532C23.4693 28.7289 28.2851 27.6641 33.6627 27.2323C33.6592 27.9501 33.6569 28.2178 33.6546 28.9919C33.6534 29.2653 33.8384 29.4743 34.0663 29.4537C35.3936 29.3457 36.5603 29.2641 37.8911 29.209C38.1202 29.201 38.3075 28.9713 38.3086 28.7002C38.3273 24.6318 38.3494 18.1008 38.3784 14.0336C39.2381 14.0198 39.1915 14.0164 40.05 14.0175C40.3513 14.0175 40.5979 13.7591 40.5991 13.5351C40.6002 13.3111 40.3571 13.0516 40.0558 13.0516" fill="#8500FF"/>
<path d="M25.4852 23.2191C28.9563 22.4806 32.1563 18.4432 32.1121 15.0055C32.0796 12.4992 31.1908 8.90176 28.3747 8.04376C28.2956 8.01963 28.2072 8.02423 28.1246 8.0495C27.258 8.2195 26.8136 8.31828 25.9668 8.4653C25.6155 8.56638 25.5527 9.01892 25.8726 9.17858C28.32 10.3984 28.7911 13.5789 28.5585 16.0243C28.3875 17.8276 27.593 21.6122 25.484 22.0246C22.5038 22.6092 22.2072 15.5166 22.3689 13.7983C22.8516 8.67779 26.1331 3.6779 31.6364 2.99334C31.6364 2.99334 31.6445 2.99218 31.6468 2.99104C31.8911 2.92671 32.0819 2.68896 32.083 2.39836C32.0842 2.06067 31.8376 1.78156 31.5293 1.78271C30.2777 1.79075 29.0261 1.80108 27.7733 1.81256C27.7733 1.30833 27.7733 1.05104 27.7744 0.520382C27.7744 0.24127 27.5837 0.00925746 27.3464 0.00925746C26.0017 0.00925746 24.6558 0.00810661 23.3111 0.00695801C23.082 0.00695801 22.8959 0.236677 22.897 0.51464C22.897 1.04185 22.897 1.29914 22.8982 1.80338C21.7419 1.79764 20.5869 1.79419 19.4306 1.79189C19.1293 1.79189 18.8874 2.07674 18.8874 2.42247C18.8874 2.7682 19.1316 3.04272 19.4329 3.04272C22.5574 3.04502 25.6806 3.08407 28.8051 3.03928C23.3856 5.49959 18.7803 9.21533 18.4744 15.2444C18.2871 18.9452 20.7648 24.2219 25.4817 23.2191" fill="#FF504F"/>
<path d="M79.0078 23.6303C79.1834 23.6786 79.3846 23.7567 79.5091 23.8015C79.7313 23.8796 80 23.6923 80 23.3076C80 22.9228 79.772 22.5322 79.4905 22.4346C77.6282 21.7971 75.7565 21.1976 73.8698 20.6336C73.8698 20.0892 73.8698 19.8181 73.8686 19.2748C73.8686 19.0175 73.693 18.7637 73.4754 18.7085C72.2133 18.3869 70.9466 18.0837 69.6752 17.8C69.4565 17.7506 69.2785 17.9022 69.2785 18.1377C69.2785 18.635 69.2785 18.8831 69.2785 19.3816C67.3999 18.9176 65.5143 18.4891 63.6182 18.0975C63.3239 18.0377 63.0843 18.2158 63.0843 18.4937C63.0843 18.7729 63.3228 19.0508 63.6182 19.1151C67.8338 20.0673 71.9784 21.2228 76.0741 22.5897C74.4211 22.3485 72.7531 22.3094 71.0873 22.3048C68.1944 22.2956 64.2138 22.7149 63.567 26.1182C62.7074 30.6483 67.9012 35.3966 71.6422 37.2023C74.7759 38.7138 79.7953 39.1629 79.5905 34.3583C79.437 30.7815 77.3839 26.8912 74.0303 25.2613C73.9023 25.1993 73.7651 25.1545 73.6755 25.2384C73.451 25.4451 72.8066 26.0412 72.6205 26.2319C72.4506 26.4053 72.5332 26.6913 72.7624 26.8326C74.4619 27.8802 75.5157 30.1153 75.596 31.9669C75.6879 34.047 74.527 37.363 71.641 35.902C69.0656 34.5972 67.643 30.8183 67.9861 28.1099C68.6876 22.5747 74.6375 22.685 79.0078 23.6315" fill="#8500FF"/>
<path d="M63.5903 14.7986C63.5845 15.0743 63.8288 15.343 64.1231 15.389C69.2134 16.2045 74.2374 17.2635 79.2172 18.5833C79.4998 18.6591 79.7278 18.4133 79.7278 18.0308C79.7278 17.6483 79.4998 17.283 79.2172 17.2141C75.617 16.3561 71.9993 15.621 68.3491 15.0007C68.1385 13.1917 68.0653 10.9473 69.3995 9.48859C72.0982 9.70567 74.7911 9.96066 77.4816 10.2559C77.7654 10.288 77.9958 10.0135 77.9958 9.64135C77.9958 9.26921 77.7654 8.94644 77.4816 8.92003C76.5731 8.83733 76.1183 8.79713 75.2052 8.72132C77.8108 7.27293 79.6231 3.67893 79.9 0.844172C79.943 0.399661 79.6801 0.0114322 79.3963 0.0114322C74.4712 0.00454053 69.5461 0.00109863 64.6198 0.00109863C64.3266 0.00109863 64.0893 0.30088 64.0893 0.66384C64.0893 1.0268 64.3266 1.31625 64.6198 1.3174C68.1676 1.32084 71.7167 1.33463 75.2645 1.3599C75.4425 3.54799 75.19 7.52103 72.7391 8.52835C70.2475 8.34917 67.7535 8.19985 65.2584 8.07695C64.9653 8.06317 64.728 8.30552 64.728 8.61335C64.728 8.92232 64.9653 9.18306 65.2584 9.20144C65.5283 9.21752 65.6644 9.2267 65.9342 9.24393C64.607 10.5694 63.6299 12.9781 63.5915 14.7986" fill="#FF504F"/>
<path d="M44.0748 15.1777C45.5405 14.1715 46.6851 12.8058 47.7355 11.3735C48.7417 13.0608 50.3586 14.4633 51.9673 15.5694C52.7048 16.0759 52.9572 16.1735 53.3085 16.2114C53.3085 16.2114 53.6738 16.2493 54.4217 16.3366C54.6951 16.3688 54.8614 16.1322 54.5636 15.8588C52.9398 14.3656 52.0895 12.243 51.409 10.2364C51.3368 10.0227 51.1182 9.87916 50.8564 9.86653C50.3946 9.84471 49.5117 9.80565 48.6975 9.77349C49.0023 9.19574 49.3012 8.55942 49.5629 7.86222C50.4202 5.57994 50.7599 2.9255 50.7936 0.513427C50.796 0.335393 50.6087 -0.00114567 50.3818 2.93259e-06C49.5455 2.93259e-06 49.1279 0.00115378 48.295 0.00230239C47.4621 0.00230239 47.0457 0.00115154 46.214 2.93259e-06C45.9883 2.93259e-06 45.8057 0.230869 45.8045 0.505386C45.7638 5.46507 45.2857 11.1886 41.8193 15.1524C41.5808 15.4246 41.7821 15.505 41.967 15.5085C42.3114 15.5154 42.53 15.5188 43.1663 15.5372C43.392 15.5441 43.627 15.4832 44.076 15.1754" fill="#40E9CB"/>
<path d="M59.1503 38.4461L58.5861 38.3221C58.6431 38.0683 58.4721 37.8316 58.1127 37.7535C57.8137 37.6881 57.5101 37.7409 57.4589 37.9649C57.4136 38.167 57.5985 38.283 58.0301 38.476C58.7036 38.7701 59.1096 39.0411 58.9746 39.6407C58.8478 40.2058 58.2883 40.4562 57.5404 40.292C56.9588 40.1645 56.3981 39.7085 56.5563 39.0044L57.1204 39.1284C57.0425 39.4753 57.3554 39.7165 57.6555 39.782C57.9801 39.8532 58.3442 39.813 58.407 39.535C58.4488 39.3489 58.3209 39.2019 57.7974 38.9756C57.274 38.7505 56.754 38.468 56.8959 37.8385C57.0088 37.3366 57.5369 37.0839 58.229 37.2367C59.0118 37.4078 59.2538 37.9844 59.1491 38.4484" fill="#8500FF"/>
<path d="M61.222 38.8814L60.3763 39.8842L61.1906 40.1862L61.222 38.8814ZM60.0192 40.3206L59.5888 40.8168L59.0153 40.6032L61.108 38.1613L61.7931 38.4151L61.7396 41.614L61.1661 41.4015L61.1731 40.7491L60.0192 40.3206Z" fill="#8500FF"/>
<path d="M67.2336 42.4169C67.4616 41.9 67.2766 41.3096 66.8136 41.1109C66.346 40.9099 65.7842 41.1787 65.5562 41.6955C65.327 42.217 65.5108 42.8062 65.9784 43.0072C66.4414 43.2059 67.0044 42.9372 67.2336 42.4157M67.7733 42.6477C67.4162 43.4575 66.5531 43.8503 65.7574 43.508C64.9571 43.1646 64.6593 42.2733 65.0164 41.4624C65.3712 40.656 66.2355 40.2644 67.0358 40.6078C67.8315 40.9501 68.1304 41.8414 67.7745 42.6466" fill="#8500FF"/>
<path d="M69.624 45.6318L69.0494 45.2424L69.2494 42.789L68.0269 44.551L67.55 44.2282L69.2669 41.7518L69.8415 42.1412L69.638 44.5923L70.8605 42.8304L71.3409 43.1543L69.624 45.6318Z" fill="#8500FF"/>
<path d="M10.3667 45.7972C9.6583 46.2199 8.74749 45.9615 8.28685 45.2103C7.82621 44.4591 8.01698 43.5414 8.72539 43.1187C9.31398 42.7672 9.95027 42.8373 10.433 43.2668L9.89676 43.5873C9.63736 43.423 9.29886 43.3886 8.99874 43.5678C8.57184 43.8228 8.48343 44.4315 8.78006 44.9162C9.07901 45.4044 9.66644 45.61 10.0933 45.355C10.39 45.1781 10.5144 44.8554 10.4877 44.5533L11.0204 44.2351C11.1752 44.8554 10.9425 45.4538 10.3655 45.7984" fill="#8500FF"/>
<path d="M13.3132 42.8729C13.6563 43.5598 13.483 44.1823 12.9433 44.4396C12.4245 44.6866 11.7742 44.466 11.4322 43.7792L10.6203 42.1539L11.1344 41.9023L11.9533 43.5437C12.1534 43.9434 12.3942 44.1169 12.7025 43.9618C13.0037 43.8102 13.0003 43.546 12.8002 43.1463L11.9813 41.5049L12.5012 41.2488L13.312 42.8741L13.3132 42.8729Z" fill="#8500FF"/>
<path d="M16.5609 39.9394L17.4717 42.2389L16.9343 42.4468L16.0235 40.1473L15.3046 40.4241L15.1092 39.9291L17.0844 39.1664L17.2809 39.6614L16.5609 39.9394Z" fill="#8500FF"/>
<path d="M22.2805 38.901C22.3526 38.8803 22.7062 38.7505 22.6027 38.3921C22.576 38.2968 22.4945 38.0131 22.0479 38.1383L21.2685 38.3565L21.4883 39.1215L22.2805 38.8998V38.901ZM23.7124 40.2391L23.1483 40.3976C23.0913 40.3287 23.0366 40.231 22.9982 40.0978L22.8714 39.6568C22.8005 39.4109 22.6504 39.3317 22.3898 39.4052L21.6314 39.6177L21.9525 40.733L21.3964 40.8892L20.5659 38.0016L21.9013 37.6272C22.512 37.456 22.9959 37.6662 23.1518 38.2072C23.246 38.5357 23.1518 38.7918 22.9319 38.9791C23.1704 39.0331 23.3414 39.2007 23.4286 39.5051L23.5449 39.9083C23.5752 40.0128 23.6554 40.1644 23.7124 40.2391Z" fill="#8500FF"/>
<path d="M26.3309 39.094L24.8326 39.4282L24.664 38.6885L26.0692 38.3795L25.9621 37.8638L24.5465 38.1751L24.4057 37.5571L25.8784 37.2286L25.7691 36.7129L23.7287 37.1677L24.3929 40.0657L26.4321 39.6074L26.3309 39.094Z" fill="#8500FF"/>
<path d="M16.0817 42.2642L14.8672 42.7937L13.8564 40.5355L13.3236 40.7687L14.552 43.5127L16.2992 42.7512L16.0817 42.2642Z" fill="#8500FF"/>
<path d="M64.3557 42.1297L63.0948 41.5807L64.1045 39.3214L63.5717 39.0894L62.3445 41.8357L64.1429 42.619L64.3557 42.1297Z" fill="#8500FF"/>
<path d="M20.267 39.9394C20.524 40.6618 20.2774 41.2591 19.7109 41.4509C19.1654 41.6347 18.5477 41.3395 18.2906 40.617L17.6811 38.9079L18.222 38.7184L18.8374 40.4436C18.9874 40.864 19.2061 41.065 19.5306 40.9467C19.8482 40.8318 19.8761 40.5688 19.7261 40.1484L19.1107 38.4232L19.6574 38.2302L20.267 39.9394Z" fill="#8500FF"/>
</svg>
