<svg width="80" height="46" viewBox="0 0 80 46" fill="none" xmlns="http://www.w3.org/2000/svg">
<path d="M38.9344 32.0796C38.9344 31.959 38.8356 31.8613 38.7134 31.8613H35.6123C35.4901 31.8613 35.3912 31.959 35.3912 32.0796C35.3912 32.2002 35.4901 32.2978 35.6123 32.2978H36.8139V42.7961C36.8139 42.8868 36.8883 42.9603 36.9814 42.9603H38.7669C38.8588 42.9603 38.9344 42.8868 38.9344 42.7961V32.1404C38.9344 32.1312 38.9344 32.1221 38.9321 32.1129C38.9333 32.1025 38.9344 32.091 38.9344 32.0796Z" fill="black"/>
<path d="M50.9519 34.4971C48.9081 34.4971 47.3145 36.9 47.3145 40.1103C47.3145 43.3207 48.9092 45.7235 50.9519 45.7235C52.9945 45.7235 54.5893 43.3207 54.5893 40.1103C54.5893 36.9 52.9945 34.4971 50.9519 34.4971ZM50.9519 45.2388C49.9143 45.2388 49.1361 43.053 49.1361 40.1103C49.1361 37.1676 49.9154 34.9818 50.9519 34.9818C51.9883 34.9818 52.7677 37.1676 52.7677 40.1103C52.7677 43.053 51.9883 45.2388 50.9519 45.2388Z" fill="black"/>
<path d="M30.8954 38.0721V35.1259H34.5468C34.6689 35.1259 34.7678 35.0283 34.7678 34.9077C34.7678 34.7871 34.6689 34.6895 34.5468 34.6895H29.1552C29.0633 34.6895 28.9877 34.763 28.9877 34.8537V38.6246C28.9877 38.7153 29.0621 38.79 29.1552 38.79H30.8046C30.8174 38.79 30.8326 38.7877 30.8419 38.7819C30.8535 38.7739 30.8849 38.7509 30.8907 38.7475C31.3851 38.396 33.2765 37.8091 33.1928 40.9471C33.1427 42.8377 31.7352 44.8971 29.5588 45.2589C29.3925 45.2865 29.3669 45.5128 29.5239 45.5748L30.5197 45.8907C30.5394 45.8987 30.5615 45.9044 30.5836 45.9021C32.5611 45.7241 35.2889 43.3476 35.2889 40.9471C35.2889 37.909 32.1389 37.747 30.8965 38.0721" fill="black"/>
<path d="M46.5257 43.68H42.4451C43.7805 39.7644 46.9945 38.0334 46.8491 35.2584C46.585 31.9332 41.9182 32.1307 40.5688 34.8449C40.5165 34.9517 40.549 35.0757 40.6654 35.1033C40.6654 35.1033 41.4913 34.9931 41.7728 34.9218C41.8844 34.8943 41.9879 34.8185 42.1159 34.5566C43.1686 32.4098 45.5474 32.7843 45.0345 36.0969C44.6145 38.8064 41.3982 40.8463 40.1326 43.7856C40.1326 43.7856 40.1012 43.8568 40.1012 43.8982C40.1012 44.0188 40.2001 44.1164 40.3222 44.1164H46.5292C46.6513 44.1164 46.7502 44.0188 46.7502 43.8982C46.7502 43.7776 46.6513 43.68 46.5292 43.68" fill="black"/>
<path d="M61.3756 7.90845C60.7125 7.88662 60.381 7.87629 59.7156 7.85906C59.718 5.40908 59.7203 2.9591 59.7215 0.509123C59.7215 0.232309 59.5388 0.00488281 59.3143 0.00488281C58.1732 0.00488281 57.0332 0.00718339 55.8921 0.008332C55.6641 0.008332 55.4791 0.239202 55.4791 0.518314C55.4768 5.72035 55.4733 10.9235 55.4698 16.1256C55.4698 16.3094 55.6536 16.4816 55.8816 16.5115C56.9914 16.6585 58.0987 16.8193 59.2038 16.9951C59.4295 17.0307 59.7075 16.917 59.7075 16.7194C59.7098 14.1167 59.7133 11.5139 59.7156 8.91118C60.3822 8.93645 60.7137 8.95023 61.3767 8.9801C61.6734 8.99388 61.913 8.76645 61.913 8.46782C61.913 8.17033 61.6734 7.91648 61.3779 7.9073" fill="black"/>
<path d="M59.8401 19.2619C59.8471 19.232 59.8506 19.1998 59.8506 19.1677C59.8506 18.9023 59.6098 18.6416 59.312 18.5865C53.9623 17.6205 48.6173 17.0761 43.1838 16.8705C42.8825 16.8613 42.6371 17.0382 42.6359 17.2667C42.6359 17.4953 42.879 17.6906 43.1803 17.7009C47.062 17.8548 50.9414 18.1362 54.7824 18.7255C54.8184 20.3048 54.3648 22.3964 52.5943 22.9052C49.5839 22.4825 46.5711 22.1897 43.5351 22.0277C43.2327 22.0128 42.9872 22.2218 42.9861 22.4963C42.9861 22.772 43.2292 23.0098 43.5316 23.0247C43.6968 23.0327 43.7794 23.0373 43.9457 23.0454C42.8011 24.4719 42.1183 26.675 42.0915 28.4519C42.0857 28.8022 42.3358 29.1135 42.6394 29.1272C48.3102 29.4431 54.0298 30.3769 59.6307 31.9712C59.9285 32.0562 60.1705 31.8288 60.1705 31.4658C60.1705 31.104 59.9297 30.7445 59.6319 30.6583C55.5815 29.5224 51.1926 28.6356 47.0097 28.1659C46.77 26.8266 46.6421 24.3525 47.8391 23.3406C51.1426 23.6886 54.3497 24.2273 57.5753 25.0095C57.8742 25.0841 58.1174 24.9015 58.1174 24.6052C58.1174 24.3088 57.8754 24.0125 57.5765 23.9401C56.6622 23.7196 56.2038 23.6151 55.2849 23.4175C57.1519 22.8604 59.5295 21.3385 59.8401 19.2607" fill="black"/>
<path d="M16.2445 0.00114973C12.4547 0.00114973 8.66486 0.0011472 4.87505 0.00574163C4.84714 0.00574163 4.81922 0.00918941 4.79247 0.0149324C4.7692 0.00918941 4.74477 0.00574163 4.72034 0.00574163C3.50244 0.00689024 2.28454 0.00803632 1.06664 0.0103335C0.859582 0.0103335 0.693237 0.245798 0.693237 0.534098C0.696727 6.85258 0.700219 13.1711 0.702545 19.4884C0.702545 19.7744 0.872378 19.9547 1.08176 19.8916C2.30548 19.5229 3.53617 19.176 4.77269 18.8475C4.98672 18.7912 5.16004 18.5339 5.15888 18.272C5.14143 12.6335 5.12515 6.99386 5.10886 1.35535C7.25735 1.34042 9.40583 1.33009 11.5555 1.3232C11.5834 5.84411 11.8696 13.3836 8.20655 16.8076C7.8599 16.8811 7.68775 16.9178 7.34343 16.9936C7.05611 17.0568 6.82579 17.3807 6.82696 17.715C6.82812 18.0504 7.06076 18.264 7.34808 18.1939C9.78156 17.6162 12.2232 17.1016 14.6822 16.6422C14.9777 16.5882 15.2162 16.3148 15.215 16.0288C15.2138 15.7428 14.9731 15.5487 14.6776 15.5969C13.1724 15.8404 11.6706 16.1138 10.1747 16.4056C14.1879 12.6048 16.2654 6.1393 16.7714 0.809766C16.7795 0.762673 16.7854 0.71443 16.7854 0.663891C16.7854 0.300931 16.5423 0 16.2433 0" fill="black"/>
<path d="M15.4779 18.2843C10.1748 19.3893 5.61259 20.6574 0.500188 22.4343C0.223339 22.5319 0 22.9236 0 23.3072C0 23.6908 0.223339 23.9148 0.500188 23.8103C2.56609 23.0361 4.6471 22.3182 6.75139 21.6486C6.76186 24.457 6.77116 27.2664 6.78047 30.0759C6.78047 30.3401 6.95844 30.4745 7.17481 30.3769C8.17751 29.9324 9.18254 29.5005 10.1957 29.0789C10.4156 28.9894 10.5924 28.7125 10.5912 28.4598C10.5807 25.818 10.5691 23.1774 10.5575 20.5356C12.3977 20.0302 13.6168 19.7178 15.4803 19.3066C15.7769 19.2411 16.0165 18.962 16.0154 18.6818C16.0154 18.4026 15.7734 18.2235 15.4768 18.2843" fill="black"/>
<path d="M16.1526 32.1219C12.3581 33.5163 8.69979 35.1474 5.12402 37.0219C5.11471 33.6117 5.10424 30.2015 5.09493 26.7912C5.09493 26.5259 4.9158 26.3835 4.69711 26.4731C3.54551 26.9452 2.40438 27.4391 1.27256 27.9548C1.05736 28.0536 0.882876 28.3648 0.884039 28.6497C0.886365 32.4401 0.888692 36.2305 0.891018 40.0209C0.891018 40.0335 0.893347 40.0439 0.893347 40.0554C0.89102 40.0806 0.891018 40.1047 0.891018 40.1289C0.891018 40.5102 1.12367 40.6768 1.41099 40.5022C6.11858 37.6927 11.0042 35.3323 16.1584 33.4325C16.4597 33.3245 16.7028 32.9397 16.7016 32.5779C16.7016 32.2161 16.455 32.014 16.1538 32.1219" fill="black"/>
<path d="M40.0535 13.0491C39.1962 13.0491 39.2416 13.0514 38.3831 13.0652C38.4192 8.00332 38.4506 5.56023 38.4738 0.498318C38.4738 0.226098 38.2912 0.000976563 38.0644 0.000976563C36.7395 0.000976563 35.5727 0.000971795 34.249 0.00326901C34.0187 0.00326901 33.8314 0.230693 33.829 0.50521C33.7883 8.98537 33.7139 17.5586 33.6685 26.0387C31.8667 26.1915 29.8415 26.4764 27.935 26.7647C27.935 26.0812 27.9384 25.0119 27.9384 24.7339C27.9384 24.5065 27.7535 24.3537 27.5243 24.387C26.1796 24.5915 24.8757 24.7764 23.5484 25.0842C23.3216 25.1371 23.1378 25.3668 23.1378 25.5988C23.1378 26.3902 23.139 26.8382 23.1401 27.687C21.7024 28.0442 20.3018 28.4198 18.899 28.8241C18.6012 28.9149 18.3616 29.2617 18.3616 29.6006C18.3616 29.9406 18.6035 30.145 18.9013 30.0531C23.4693 28.7288 28.2851 27.664 33.6627 27.2321C33.6592 27.95 33.6569 28.2176 33.6546 28.9918C33.6534 29.2652 33.8384 29.4742 34.0663 29.4535C35.3936 29.3456 36.5603 29.264 37.8911 29.2089C38.1202 29.2009 38.3075 28.9711 38.3086 28.7001C38.3273 24.6317 38.3494 18.1007 38.3784 14.0335C39.2381 14.0197 39.1915 14.0163 40.05 14.0174C40.3513 14.0174 40.5979 13.759 40.5991 13.535C40.6002 13.311 40.3571 13.0514 40.0558 13.0514" fill="black"/>
<path d="M25.4852 23.219C28.9562 22.4805 32.1563 18.4431 32.1121 15.0053C32.0795 12.4991 31.1908 8.90164 28.3746 8.04363C28.2955 8.01951 28.2071 8.02411 28.1245 8.04938C27.2579 8.21938 26.8136 8.31816 25.9667 8.46518C25.6154 8.56625 25.5526 9.0188 25.8725 9.17846C28.32 10.3983 28.7911 13.5788 28.5584 16.0242C28.3874 17.8275 27.5929 21.6121 25.484 22.0245C22.5038 22.6091 22.2072 15.5165 22.3689 13.7982C22.8516 8.67767 26.1331 3.67778 31.6363 2.99321C31.6363 2.99321 31.6445 2.99206 31.6468 2.99091C31.8911 2.92659 32.0818 2.68883 32.083 2.39824C32.0842 2.06055 31.8376 1.78144 31.5293 1.78258C30.2777 1.79062 29.026 1.80096 27.7732 1.81244C27.7732 1.3082 27.7732 1.05092 27.7744 0.52026C27.7744 0.241148 27.5836 0.00913539 27.3463 0.00913539C26.0016 0.00913539 24.6558 0.00798454 23.3111 0.00683594C23.0819 0.00683594 22.8958 0.236555 22.897 0.514518C22.897 1.04173 22.897 1.29902 22.8981 1.80326C21.7419 1.79752 20.5868 1.79407 19.4306 1.79177C19.1293 1.79177 18.8873 2.07662 18.8873 2.42235C18.8873 2.76808 19.1316 3.0426 19.4329 3.0426C22.5573 3.0449 25.6806 3.08395 28.805 3.03915C23.3855 5.49947 18.7803 9.21521 18.4744 15.2442C18.2871 18.9451 20.7648 24.2218 25.4817 23.219" fill="black"/>
<path d="M79.0078 23.6307C79.1835 23.6789 79.3847 23.757 79.5092 23.8018C79.7313 23.8799 80.0001 23.6927 80.0001 23.3079C80.0001 22.9231 79.7721 22.5326 79.4906 22.435C77.6282 21.7975 75.7566 21.1979 73.8698 20.634C73.8698 20.0895 73.8698 19.8185 73.8687 19.2752C73.8687 19.0179 73.693 18.764 73.4755 18.7089C72.2134 18.3873 70.9466 18.0841 69.6752 17.8003C69.4565 17.751 69.2786 17.9026 69.2786 18.138C69.2786 18.6354 69.2786 18.8835 69.2786 19.382C67.3999 18.9179 65.5143 18.4895 63.6183 18.0978C63.324 18.0381 63.0844 18.2161 63.0844 18.4941C63.0844 18.7732 63.3228 19.0512 63.6183 19.1155C67.8338 20.0677 71.9784 21.2232 76.0742 22.59C74.4212 22.3488 72.7531 22.3098 71.0874 22.3052C68.1944 22.296 64.2139 22.7152 63.5671 26.1186C62.7075 30.6487 67.9013 35.397 71.6422 37.2026C74.776 38.7142 79.7953 39.1633 79.5906 34.3587C79.437 30.7819 77.384 26.8916 74.0304 25.2617C73.9024 25.1997 73.7651 25.1549 73.6756 25.2387C73.4511 25.4455 72.8066 26.0416 72.6205 26.2323C72.4507 26.4057 72.5333 26.6917 72.7624 26.833C74.4619 27.8805 75.5158 30.1157 75.5961 31.9673C75.688 34.0474 74.5271 37.3634 71.6411 35.9024C69.0657 34.5976 67.6431 30.8187 67.9862 28.1102C68.6876 22.5751 74.6376 22.6854 79.0078 23.6318" fill="black"/>
<path d="M63.5903 14.7985C63.5845 15.0741 63.8288 15.3429 64.1231 15.3889C69.2134 16.2044 74.2374 17.2634 79.2171 18.5831C79.4998 18.6589 79.7278 18.4131 79.7278 18.0307C79.7278 17.6482 79.4998 17.2829 79.2171 17.214C75.6169 16.356 71.9993 15.6209 68.3491 15.0006C68.1385 13.1916 68.0653 10.9472 69.3995 9.48847C72.0982 9.70555 74.791 9.96054 77.4816 10.2557C77.7654 10.2879 77.9958 10.0134 77.9958 9.64123C77.9958 9.26908 77.7654 8.94632 77.4816 8.9199C76.5731 8.8372 76.1183 8.797 75.2052 8.7212C77.8108 7.2728 79.6231 3.67881 79.9 0.84405C79.943 0.399539 79.6801 0.0113101 79.3963 0.0113101C74.4712 0.00441846 69.546 0.000976562 64.6198 0.000976562C64.3266 0.000976562 64.0893 0.300758 64.0893 0.663718C64.0893 1.02668 64.3266 1.31613 64.6198 1.31728C68.1676 1.32072 71.7166 1.3345 75.2645 1.35977C75.4425 3.54787 75.19 7.5209 72.7391 8.52823C70.2475 8.34905 67.7535 8.19973 65.2584 8.07683C64.9652 8.06305 64.7279 8.3054 64.7279 8.61323C64.7279 8.9222 64.9652 9.18294 65.2584 9.20131C65.5282 9.21739 65.6643 9.22658 65.9342 9.24381C64.607 10.5693 63.6298 12.9779 63.5915 14.7985" fill="black"/>
<path d="M44.0748 15.1777C45.5404 14.1715 46.6851 12.8058 47.7355 11.3735C48.7417 13.0608 50.3585 14.4633 51.9673 15.5694C52.7048 16.0759 52.9572 16.1735 53.3085 16.2114C53.3085 16.2114 53.6737 16.2493 54.4217 16.3366C54.6951 16.3688 54.8614 16.1322 54.5636 15.8588C52.9397 14.3656 52.0894 12.243 51.4089 10.2364C51.3368 10.0227 51.1181 9.87916 50.8564 9.86653C50.3946 9.84471 49.5117 9.80565 48.6975 9.77349C49.0022 9.19574 49.3012 8.55942 49.5629 7.86222C50.4202 5.57994 50.7599 2.9255 50.7936 0.513427C50.7959 0.335393 50.6086 -0.00114567 50.3818 2.93259e-06C49.5454 2.93259e-06 49.1278 0.00115378 48.295 0.00230239C47.4621 0.00230239 47.0457 0.00115154 46.214 2.93259e-06C45.9883 2.93259e-06 45.8057 0.230869 45.8045 0.505386C45.7638 5.46507 45.2857 11.1886 41.8193 15.1524C41.5808 15.4246 41.7821 15.505 41.967 15.5085C42.3113 15.5154 42.53 15.5188 43.1663 15.5372C43.392 15.5441 43.6269 15.4832 44.0759 15.1754" fill="black"/>
<path d="M59.1503 38.4461L58.5861 38.3221C58.6431 38.0683 58.4721 37.8316 58.1127 37.7535C57.8138 37.6881 57.5101 37.7409 57.459 37.9649C57.4136 38.167 57.5986 38.283 58.0301 38.476C58.7036 38.7701 59.1096 39.0411 58.9747 39.6407C58.8479 40.2058 58.2884 40.4562 57.5404 40.292C56.9588 40.1645 56.3981 39.7085 56.5563 39.0044L57.1205 39.1284C57.0425 39.4753 57.3554 39.7165 57.6556 39.782C57.9801 39.8532 58.3442 39.813 58.407 39.535C58.4489 39.3489 58.3209 39.2019 57.7975 38.9756C57.274 38.7505 56.7541 38.468 56.896 37.8385C57.0088 37.3366 57.5369 37.0839 58.229 37.2367C59.0119 37.4078 59.2538 37.9844 59.1491 38.4484" fill="black"/>
<path d="M61.222 38.8813L60.3764 39.884L61.1906 40.1861L61.222 38.8813ZM60.0192 40.3205L59.5889 40.8167L59.0154 40.6031L61.108 38.1611L61.7932 38.415L61.7397 41.6138L61.1662 41.4013L61.1732 40.7489L60.0192 40.3205Z" fill="black"/>
<path d="M67.2336 42.4172C67.4616 41.9004 67.2766 41.31 66.8137 41.1113C66.3461 40.9103 65.7842 41.179 65.5562 41.6959C65.3271 42.2174 65.5109 42.8066 65.9785 43.0076C66.4414 43.2063 67.0044 42.9375 67.2336 42.4161M67.7733 42.6481C67.4162 43.4579 66.5531 43.8507 65.7575 43.5084C64.9572 43.165 64.6594 42.2736 65.0165 41.4627C65.3713 40.6564 66.2356 40.2647 67.0359 40.6082C67.8315 40.9505 68.1305 41.8418 67.7745 42.6469" fill="black"/>
<path d="M69.624 45.632L69.0493 45.2426L69.2494 42.7891L68.0268 44.5511L67.5499 44.2283L69.2669 41.752L69.8415 42.1413L69.6379 44.5925L70.8605 42.8305L71.3409 43.1544L69.624 45.632Z" fill="black"/>
<path d="M10.3667 45.7976C9.65827 46.2203 8.74746 45.9618 8.28682 45.2106C7.82618 44.4595 8.01695 43.5417 8.72536 43.119C9.31395 42.7676 9.95024 42.8376 10.433 43.2672L9.89673 43.5877C9.63732 43.4234 9.29883 43.389 8.99871 43.5681C8.57181 43.8231 8.4834 44.4319 8.78003 44.9166C9.07898 45.4048 9.66641 45.6104 10.0933 45.3554C10.3899 45.1785 10.5144 44.8557 10.4876 44.5536L11.0204 44.2355C11.1751 44.8557 10.9425 45.4542 10.3655 45.7987" fill="black"/>
<path d="M13.3131 42.8732C13.6563 43.56 13.483 44.1826 12.9432 44.4399C12.4244 44.6868 11.7742 44.4663 11.4322 43.7794L10.6202 42.1541L11.1344 41.9026L11.9533 43.5439C12.1534 43.9437 12.3942 44.1171 12.7024 43.962C13.0037 43.8104 13.0002 43.5462 12.8001 43.1465L11.9812 41.5052L12.5012 41.249L13.312 42.8743L13.3131 42.8732Z" fill="black"/>
<path d="M16.5608 39.939L17.4716 42.2385L16.9342 42.4464L16.0234 40.1469L15.3045 40.4237L15.1091 39.9287L17.0843 39.166L17.2809 39.6611L16.5608 39.939Z" fill="black"/>
<path d="M22.2805 38.9013C22.3527 38.8807 22.7063 38.7509 22.6027 38.3925C22.576 38.2972 22.4946 38.0135 22.0479 38.1387L21.2685 38.3569L21.4884 39.1219L22.2805 38.9002V38.9013ZM23.7125 40.2395L23.1483 40.398C23.0913 40.329 23.0366 40.2314 22.9982 40.0982L22.8714 39.6571C22.8005 39.4113 22.6504 39.3321 22.3899 39.4056L21.6314 39.6181L21.9525 40.7334L21.3965 40.8896L20.5659 38.002L21.9013 37.6275C22.512 37.4564 22.9959 37.6666 23.1518 38.2076C23.246 38.5361 23.1518 38.7922 22.9319 38.9794C23.1704 39.0334 23.3414 39.2011 23.4286 39.5055L23.545 39.9087C23.5752 40.0132 23.6555 40.1648 23.7125 40.2395Z" fill="black"/>
<path d="M26.3309 39.094L24.8327 39.4282L24.664 38.6885L26.0692 38.3795L25.9622 37.8638L24.5465 38.1751L24.4058 37.5571L25.8784 37.2286L25.7691 36.7129L23.7288 37.1677L24.393 40.0657L26.4321 39.6074L26.3309 39.094Z" fill="black"/>
<path d="M16.0816 42.2638L14.8672 42.7933L13.8564 40.5352L13.3236 40.7683L14.552 43.5123L16.2991 42.7508L16.0816 42.2638Z" fill="black"/>
<path d="M64.3557 42.1302L63.0948 41.5812L64.1045 39.3219L63.5717 39.0898L62.3445 41.8362L64.1428 42.6195L64.3557 42.1302Z" fill="black"/>
<path d="M20.267 39.9396C20.5241 40.6621 20.2775 41.2593 19.711 41.4512C19.1654 41.6349 18.5478 41.3397 18.2907 40.6173L17.6812 38.9081L18.2221 38.7186L18.8374 40.4438C18.9875 40.8642 19.2062 41.0652 19.5307 40.9469C19.8483 40.8321 19.8762 40.569 19.7261 40.1486L19.1108 38.4234L19.6575 38.2305L20.267 39.9396Z" fill="black"/>
</svg>
