<svg width="40" height="37" viewBox="0 0 40 37" fill="none" xmlns="http://www.w3.org/2000/svg">
<path d="M33.4527 29.1759C33.5274 28.9489 33.6997 28.765 33.8857 28.5885C33.9119 28.5633 33.9403 28.5328 33.954 28.5024C34.0075 28.3784 34.0769 28.2701 34.1956 28.1714C34.3385 28.0526 34.4772 27.9202 34.5886 27.7773C34.6706 27.6723 34.762 27.5798 34.8576 27.4894C34.9122 27.4379 34.9774 27.3949 35.0362 27.3465C35.1056 27.2898 35.1707 27.2288 35.2411 27.1742C35.2958 27.1311 35.3441 27.129 35.3704 27.1784C35.3882 27.2131 35.3977 27.2541 35.4176 27.2866C35.467 27.3654 35.5196 27.4422 35.5742 27.5178C35.6141 27.5714 35.6614 27.6187 35.7014 27.6733C35.7781 27.7784 36.0019 27.8057 36.1553 27.7406C36.3024 27.6775 36.4348 27.6859 36.5441 27.7532C36.5609 27.7637 36.5766 27.7773 36.5966 27.7794C36.7437 27.7942 36.8414 27.8761 36.9265 27.9644C36.9896 28.0306 37.0242 28.1251 37.0547 28.2166C37.1199 28.4099 37.1398 28.6158 37.0074 28.8491C36.9854 28.8869 36.9538 28.9227 36.9244 28.9584C36.8824 29.0088 36.8435 29.0645 36.7941 29.1076C36.7059 29.1843 36.6124 29.2568 36.5167 29.323C36.399 29.405 36.2793 29.4859 36.1542 29.5521C36.0334 29.6172 35.9073 29.6645 35.7823 29.7191C35.6499 29.778 35.5175 29.841 35.383 29.8935C35.2411 29.9482 35.0982 29.9913 34.9553 30.0407C34.9122 30.0554 34.8692 30.0774 34.8261 30.0879C34.7294 30.1121 34.6338 30.1321 34.5371 30.1531C34.5287 30.1552 34.5182 30.1531 34.5109 30.1573C34.3249 30.2708 34.1694 30.2245 34.0054 30.2119C33.9603 30.2088 33.9025 30.234 33.8636 30.2224C33.7837 30.1983 33.7133 30.1583 33.6387 30.1237C33.6167 30.1132 33.5967 30.0942 33.5715 30.0932C33.4759 30.089 33.4265 30.0407 33.4065 29.9576C33.3792 29.8442 33.333 29.737 33.3172 29.6183C33.2993 29.4775 33.3603 29.3272 33.4496 29.178L33.4527 29.1759ZM34.6285 29.0603C34.6285 29.0603 34.6275 29.0603 34.6264 29.0603C34.5897 29.137 34.5487 29.2137 34.5182 29.2904C34.4709 29.4102 34.5266 29.4911 34.6517 29.4764C34.7 29.4701 34.7578 29.4428 34.804 29.4123C35.1539 29.1853 35.5038 28.9584 35.8495 28.7241C35.8957 28.6925 35.9357 28.6221 35.9504 28.5696C35.9672 28.5066 35.9052 28.495 35.8516 28.4897C35.6835 28.4729 35.5154 28.4561 35.3462 28.4425C35.3199 28.4404 35.2874 28.4435 35.26 28.4561C35.0005 28.577 34.7567 28.7167 34.6548 29.0025C34.6475 29.0214 34.6369 29.0414 34.6275 29.0603H34.6285Z" fill="#003279"/>
<path d="M32.6889 30.9243C32.7603 30.9254 32.8328 30.9243 32.9043 30.9285C33.0514 30.9369 33.1974 30.8686 33.3445 30.8098C33.3624 30.8024 33.3803 30.7909 33.3971 30.7898C33.5253 30.7772 33.6524 30.7709 33.7817 30.7552C33.8836 30.7425 33.9865 30.7194 34.0885 30.7005C34.1788 30.6837 34.2713 30.6616 34.3606 30.6522C34.5151 30.6375 34.6674 30.6385 34.8229 30.6175C34.9238 30.6039 35.0289 30.5587 35.1329 30.5355C35.1876 30.5229 35.2516 30.5135 35.2947 30.5303C35.3914 30.5692 35.4944 30.5597 35.61 30.5398C35.7066 30.5229 35.7991 30.5482 35.8926 30.5555C35.8947 30.5555 35.8968 30.5597 35.8989 30.5597C36.0576 30.5429 36.169 30.6427 36.3423 30.6017C36.4106 30.586 36.4842 30.6154 36.5083 30.6848C36.5441 30.7888 36.5787 30.8939 36.6092 31.001C36.6134 31.0168 36.5987 31.0504 36.5829 31.0651C36.5083 31.1324 36.4253 31.1681 36.3371 31.1671C36.2856 31.1671 36.233 31.1671 36.1826 31.1618C36.0775 31.1513 35.9704 31.1818 35.859 31.2185C35.777 31.2459 35.694 31.2511 35.611 31.2679C35.5879 31.2721 35.5616 31.2774 35.5417 31.29C35.4019 31.3814 35.2653 31.4781 35.1256 31.5674C35.0226 31.6336 34.9721 31.7271 34.9091 31.8185C34.8429 31.9152 34.7609 32.0045 34.6874 32.097C34.576 32.2388 34.4373 32.366 34.3753 32.5351C34.3522 32.5982 34.2955 32.6675 34.2387 32.7159C34.1 32.8325 34.0485 32.9691 34.0097 33.1109C33.9855 33.1981 33.934 33.2707 33.8552 33.3326C33.8373 33.3463 33.8195 33.3642 33.81 33.382C33.7239 33.5502 33.5747 33.6437 33.4118 33.7214C33.3792 33.7372 33.3403 33.7435 33.3078 33.7435C33.1838 33.7435 33.0629 33.7288 32.9368 33.7393C32.7792 33.7519 32.6479 33.5533 32.7057 33.4009C32.7635 33.2496 32.7876 33.0889 32.9221 32.9596C33.0619 32.8241 33.1375 32.677 33.1796 32.5152C33.1869 32.4878 33.2174 32.4584 33.2395 32.4311C33.437 32.1905 33.6335 31.9488 33.8331 31.7092C33.9077 31.6199 33.8941 31.5327 33.7911 31.5369C33.6976 31.5401 33.5988 31.559 33.5022 31.5842C33.3456 31.6252 33.1932 31.6746 33.0367 31.6767C32.8728 31.6788 32.6994 31.7166 32.5302 31.7376C32.4976 31.7418 32.4672 31.7366 32.4346 31.7397C32.3768 31.7471 32.318 31.7597 32.2612 31.767C32.2286 31.7712 32.1961 31.7712 32.1666 31.767C32.0773 31.7555 31.9891 31.7429 31.9019 31.7271C31.8167 31.7124 31.7306 31.6998 31.6518 31.6746C31.5793 31.6514 31.5719 31.5443 31.6329 31.4781C31.7632 31.3383 31.8861 31.1891 32.0311 31.0662C32.1372 30.9769 32.2749 30.9201 32.4073 30.917C32.5029 30.9149 32.5975 30.9201 32.692 30.9222L32.6889 30.9243Z" fill="#003279"/>
<path d="M35.3042 34.9697C35.4566 34.934 35.61 34.8951 35.7624 34.8636C35.859 34.8436 35.9599 34.8205 36.0513 34.8205C36.2531 34.8226 36.4485 34.8247 36.665 34.7228C36.7438 34.686 36.8352 34.6871 36.9192 34.6808C37.1063 34.6671 37.2891 34.6734 37.4772 34.645C37.6432 34.6198 37.7777 34.6471 37.8964 34.7102C37.9731 34.7512 38.0267 34.8226 38.095 34.8752C38.1307 34.9035 38.1864 34.914 38.2138 34.9477C38.2684 35.0139 38.1665 35.1883 38.0635 35.2145C37.9637 35.2398 37.8639 35.2587 37.764 35.2839C37.7136 35.2965 37.6579 35.3049 37.6148 35.3333C37.4982 35.411 37.3858 35.4247 37.2681 35.432C37.2082 35.4363 37.1409 35.473 37.0768 35.4961C37.0043 35.5214 36.9329 35.5487 36.8604 35.5728C36.8194 35.5865 36.7774 35.5939 36.7375 35.6117C36.5925 35.6748 36.4517 35.6968 36.3066 35.721C36.2068 35.7378 36.1018 35.7956 35.9988 35.8334C35.9757 35.8418 35.9483 35.8566 35.9284 35.8545C35.8075 35.8439 35.6888 35.9017 35.568 35.9448C35.4839 35.9742 35.3977 35.9837 35.3137 35.9995C35.1876 36.0226 35.0626 36.0436 34.9375 36.0614C34.8902 36.0678 34.8419 36.0709 34.7999 36.0614C34.6874 36.0383 34.5782 36.01 34.4689 35.9805C34.429 35.969 34.3848 35.9553 34.3586 35.9291C34.2871 35.8576 34.2356 35.7672 34.1558 35.7052C34.036 35.6128 34.0244 35.4531 33.953 35.3312C33.8994 35.2387 33.8763 35.1147 33.9939 34.9718C34.057 34.8951 34.0759 34.7942 34.1305 34.7112C34.1873 34.6261 34.264 34.5494 34.3312 34.4685C34.3396 34.4591 34.3523 34.4485 34.3544 34.438C34.4174 34.1974 34.658 34.0419 34.7904 33.8339C34.8293 33.7729 34.8682 33.713 34.9081 33.6531C34.9218 33.6321 34.9365 33.609 34.9564 33.5953C35.0689 33.5134 35.1487 33.4125 35.2118 33.298C35.2527 33.2234 35.4366 33.1193 35.5165 33.1204C35.776 33.1225 35.9631 33.2213 36.0776 33.4136C36.0954 33.444 36.0965 33.5092 36.0723 33.5439C35.9904 33.6594 35.8916 33.7666 35.8033 33.879C35.7624 33.9316 35.7182 33.9873 35.6962 34.044C35.6604 34.1354 35.5984 34.2037 35.5175 34.2657C35.4923 34.2846 35.4566 34.313 35.4524 34.334C35.4261 34.4832 35.3063 34.5872 35.2034 34.7049C35.1624 34.7512 35.134 34.8237 35.134 34.8752C35.134 34.9088 35.1929 34.9298 35.2307 34.9498C35.2496 34.9592 35.2811 34.9519 35.3074 34.9529C35.3074 34.9592 35.3074 34.9645 35.3074 34.9708L35.3042 34.9697Z" fill="#003279"/>
<path fill-rule="evenodd" clip-rule="evenodd" d="M13.7197 31.1061C14.0759 31.0031 14.4205 30.9043 14.7652 30.8056C14.7652 30.8108 14.7641 30.8171 14.763 30.8224C14.783 30.8318 14.803 30.8423 14.824 30.8486C14.8366 30.8518 14.8513 30.8465 14.865 30.8434C15.0425 30.8003 15.2254 30.7877 15.4019 30.7289C15.4849 30.7015 15.5763 30.6522 15.6751 30.6795C15.6898 30.6837 15.7119 30.6637 15.7308 30.6532C15.8212 30.6028 15.9325 30.5954 16.004 30.504C16.0271 30.4746 16.0922 30.4704 16.1395 30.4693C16.252 30.4651 16.3549 30.4872 16.4411 30.5723C16.4852 30.6154 16.5525 30.6343 16.605 30.669C16.7111 30.7394 16.8425 30.793 16.9108 30.8907C16.9917 31.0063 17.0947 31.1302 17.0747 31.2963C17.0652 31.3761 16.9864 31.4865 16.9087 31.4844C16.832 31.4822 16.7763 31.5211 16.7301 31.5642C16.4831 31.7985 16.2288 32.0276 16.0008 32.2798C15.7949 32.5078 15.6194 32.7631 15.4839 33.0426C15.4607 33.0899 15.425 33.1319 15.3967 33.1771C15.384 33.1981 15.3746 33.2202 15.3588 33.2549C15.4345 33.2549 15.4965 33.257 15.5574 33.2549C15.8222 33.2423 16.087 33.2275 16.3518 33.2149C16.397 33.2128 16.4442 33.2244 16.4894 33.2223C16.584 33.217 16.6796 33.2055 16.7742 33.1992C16.8089 33.1971 16.8446 33.1992 16.8793 33.2034C16.9612 33.217 17.0453 33.1845 17.1272 33.2296C17.1577 33.2465 17.2102 33.2223 17.2638 33.2296C17.2449 33.2486 17.2292 33.2727 17.2071 33.2874C17.1167 33.3473 17.0568 33.4293 17.0169 33.5291C16.9927 33.5901 16.9328 33.5953 16.8793 33.6111C16.8047 33.6331 16.7301 33.6583 16.6565 33.6825C16.6428 33.6867 16.6313 33.6941 16.6176 33.6983C16.4695 33.7435 16.3213 33.7865 16.1742 33.8359C16.1269 33.8517 16.087 33.8906 16.0397 33.9021C15.6804 33.9883 15.3199 34.0681 14.9606 34.1533C14.8292 34.1848 14.6979 34.2163 14.5708 34.2615C14.431 34.3109 14.2965 34.375 14.161 34.4349C14.0485 34.4842 13.9319 34.5263 13.8268 34.5883C13.7333 34.6429 13.6556 34.7228 13.5662 34.7848C13.5158 34.8194 13.457 34.8436 13.3992 34.8678C13.2794 34.9192 13.1806 34.997 13.1249 35.1136C13.0787 35.2103 13.0062 35.2334 12.9106 35.2292C12.8875 35.2282 12.858 35.2324 12.8412 35.246C12.7488 35.3164 12.6374 35.3196 12.5491 35.245C12.3705 35.0958 12.2696 34.9056 12.2339 34.6755C12.2171 34.5683 12.1761 34.4653 12.1519 34.3603C12.1341 34.2846 12.1173 34.2068 12.1131 34.1291C12.112 34.1028 12.1467 34.0629 12.1751 34.0482C12.2822 33.9925 12.3926 33.941 12.5039 33.8958C12.6721 33.8286 12.8412 33.7634 13.0136 33.7067C13.1554 33.6594 13.3025 33.6247 13.4475 33.5879C13.4916 33.5764 13.5389 33.5785 13.5831 33.569C13.6755 33.5491 13.7669 33.5249 13.8594 33.5018C13.9056 33.4902 13.9529 33.4703 13.9992 33.4692C14.1231 33.465 14.1862 33.402 14.223 33.2864C14.2597 33.1719 14.3102 33.0615 14.3659 32.9554C14.4426 32.8051 14.5308 32.6612 14.6117 32.513C14.6927 32.3649 14.7694 32.2146 14.8503 32.0665C14.9322 31.9141 15.0163 31.7617 15.0982 31.6094C15.1108 31.5852 15.1182 31.559 15.1319 31.5232C15.0909 31.5285 15.0594 31.5306 15.0289 31.5358C14.9648 31.5474 14.8986 31.5548 14.8366 31.5726C14.7757 31.5894 14.7189 31.6209 14.659 31.6388C14.5697 31.6672 14.4772 31.6871 14.3879 31.7155C14.3322 31.7334 14.2787 31.7586 14.2251 31.7838C14.1431 31.8227 14.0611 31.8637 13.9792 31.9047C13.8752 31.9572 13.8142 32.0518 13.748 32.1411C13.6713 32.2451 13.5831 32.2829 13.457 32.2461C13.3592 32.2178 13.2458 32.2104 13.189 32.1043C13.1218 31.9803 13.0545 31.8553 13.0451 31.7092C13.0419 31.6567 13.0325 31.6031 13.0199 31.5516C12.9862 31.4139 13.0356 31.2952 13.106 31.1828C13.271 30.9222 13.4391 30.6637 13.6051 30.4031C13.6135 30.3905 13.6167 30.3748 13.623 30.3558C13.4906 30.3338 13.3729 30.3832 13.251 30.4021C13.1502 30.4168 13.044 30.4283 12.9442 30.4136C12.8496 30.4 12.7729 30.3327 12.7372 30.2382C12.7088 30.1625 12.67 30.0858 12.7088 29.9986C12.7193 29.9744 12.6994 29.9387 12.7046 29.9103C12.7172 29.8473 12.7256 29.779 12.7582 29.7264C12.858 29.5667 12.8948 29.3839 12.9684 29.2147C12.9967 29.1485 13.0608 29.0834 13.1249 29.0477C13.2374 28.9867 13.3603 28.9447 13.4822 28.9027C13.5705 28.8732 13.6345 28.9153 13.6577 29.0035C13.665 29.0298 13.665 29.0603 13.6776 29.0844C13.6892 29.1076 13.7102 29.138 13.7312 29.1412C13.8531 29.1643 13.9771 29.1769 14.099 29.199C14.1998 29.2168 14.2986 29.2452 14.3984 29.2652C14.4646 29.2788 14.5329 29.2851 14.6002 29.2988C14.7567 29.3314 14.9133 29.3639 15.0678 29.4028C15.1571 29.4259 15.2443 29.4596 15.3326 29.49C15.4124 29.5173 15.4912 29.5478 15.5711 29.5751C15.6268 29.5941 15.6646 29.6592 15.6583 29.7317C15.6436 29.8967 15.5553 29.9996 15.3924 30.0322C15.3263 30.0459 15.259 30.048 15.1918 30.0553C15.1823 30.0553 15.1718 30.0532 15.1644 30.0574C14.9165 30.1678 14.6464 30.1541 14.3858 30.1982C14.2776 30.2161 14.1725 30.256 14.0685 30.2928C13.9844 30.3222 13.9466 30.4 13.9193 30.4756C13.8531 30.6585 13.7932 30.8434 13.7323 31.0283C13.7249 31.0504 13.726 31.0756 13.7228 31.1071L13.7197 31.1061Z" fill="#0055A7"/>
<path d="M25.5574 33.7908C25.7329 33.8349 25.8832 33.7708 26.0376 33.6899C26.0986 33.6584 26.1774 33.6353 26.2341 33.6416C26.357 33.6563 26.4737 33.6038 26.5945 33.5575C26.6176 33.5481 26.6428 33.5428 26.666 33.5397C26.8047 33.5176 26.9434 33.5102 27.081 33.4703C27.308 33.4052 27.5349 33.3264 27.7608 33.2402C27.8249 33.216 27.888 33.1519 27.9416 33.0973C27.992 33.0469 28.0225 32.9796 28.0729 32.9281C28.1706 32.8293 28.2032 32.719 28.2337 32.6087C28.2694 32.4805 28.3388 32.3775 28.4638 32.2945C28.4911 32.2767 28.5079 32.2399 28.5289 32.2126C28.531 32.2105 28.531 32.2063 28.5321 32.2042C28.5773 32.0224 28.6624 31.8574 28.8305 31.7135C28.9125 31.6431 28.9314 31.538 28.8978 31.4812C28.8484 31.3982 28.8147 31.3909 28.676 31.4403C28.5972 31.4686 28.5195 31.5033 28.4407 31.5264C28.3661 31.5495 28.2915 31.5611 28.2169 31.579C28.1622 31.5926 28.1076 31.6105 28.054 31.6241C27.9311 31.6536 27.8092 31.6788 27.6862 31.7114C27.5654 31.7439 27.4446 31.7849 27.3237 31.8196C27.2796 31.8322 27.2302 31.8458 27.1903 31.8427C26.9812 31.8227 26.7689 31.8532 26.5462 31.952C26.4306 32.0035 26.2236 31.952 26.1753 31.8669C26.1437 31.8122 26.1007 31.7807 26.024 31.7828C25.9966 31.7828 25.962 31.7733 25.9525 31.7544C25.8811 31.6073 25.8012 31.4644 25.756 31.3047C25.7371 31.2396 25.7844 31.1345 25.8233 31.0515C25.8716 30.9475 25.9609 30.8602 26.0439 30.7709C26.1511 30.6543 26.2509 30.5303 26.3413 30.4032C26.3991 30.3223 26.4432 30.2308 26.4768 30.1426C26.5483 29.9524 26.6113 29.7622 26.6712 29.572C26.6933 29.5037 26.6922 29.4344 26.7122 29.3661C26.7563 29.2106 26.8404 29.0708 26.9864 28.9552C27.0096 28.9374 27.0253 28.9016 27.0348 28.8743C27.0873 28.7325 27.1693 28.6064 27.2975 28.4961C27.3458 28.4551 27.371 28.3889 27.4151 28.3416C27.4698 28.2828 27.5307 28.226 27.5959 28.1766C27.6453 28.1388 27.7073 28.1178 27.7587 28.0821C28.033 27.8961 28.3209 27.7794 28.6193 27.6975C28.7223 27.6691 28.8253 27.6103 28.9272 27.5851C29.0007 27.5661 29.0963 27.4957 29.1478 27.5704C29.1709 27.6029 29.1825 27.646 29.1899 27.688C29.1983 27.7395 29.1899 27.7984 29.2004 27.8488C29.2214 27.9581 29.2109 28.0695 29.1384 28.185C29.1037 28.2397 29.0396 28.2849 29.0081 28.3405C28.9545 28.4341 28.9041 28.5328 28.8725 28.6295C28.8189 28.7924 28.7496 28.9426 28.6151 29.0834C28.5521 29.1496 28.5174 29.24 28.4743 29.3209C28.3955 29.4691 28.3188 29.6172 28.241 29.7654C28.2326 29.7811 28.2127 29.7948 28.2032 29.8105C28.1549 29.8925 28.1023 29.9734 28.0624 30.0575C27.9952 30.1993 27.93 30.3422 27.8785 30.4851C27.8502 30.5629 27.8386 30.648 27.8449 30.7215C27.8502 30.7804 27.8796 30.8382 27.9626 30.8371C28.1864 30.834 28.4081 30.8392 28.634 30.8256C28.7191 30.8203 28.8147 30.772 28.9051 30.7489C28.986 30.7279 29.0732 30.6953 29.1447 30.7026C29.3454 30.7215 29.5461 30.6837 29.7552 30.5892C29.7919 30.5723 29.8371 30.5597 29.8718 30.5639C30.0567 30.5839 30.2553 30.4599 30.4413 30.4641C30.5149 30.4652 30.5916 30.462 30.6672 30.4452C30.7586 30.4252 30.8091 30.4568 30.8553 30.5082C30.9373 30.5997 30.9467 30.7226 30.9436 30.8529C30.9436 30.856 30.9436 30.8592 30.9425 30.8613C30.8542 31.0126 30.8143 31.1776 30.6641 31.311C30.6042 31.3646 30.5569 31.4455 30.5275 31.5159C30.4655 31.663 30.3856 31.7839 30.2196 31.8616C30.1502 31.8942 30.0904 31.9646 30.0284 32.0203C29.9254 32.1117 29.8245 32.2042 29.7236 32.2966C29.6553 32.3597 29.5881 32.4248 29.5187 32.4879C29.4473 32.553 29.3737 32.6171 29.3033 32.6833C29.1867 32.7926 29.0711 32.904 28.9566 33.0153C28.9429 33.029 28.9324 33.0469 28.9261 33.0637C28.8526 33.2454 29.0081 33.402 29.1983 33.3337C29.3023 33.2969 29.4042 33.2454 29.5072 33.2045C29.5419 33.1908 29.5807 33.1813 29.6154 33.1803C29.7804 33.1729 29.9443 33.1719 30.1103 33.1624C30.1629 33.1593 30.2217 33.1519 30.2721 33.1267C30.4014 33.0616 30.4644 33.1404 30.5506 33.1656C30.6252 33.1877 30.6924 33.2255 30.7712 33.2349C30.9236 33.2528 31.0549 33.2917 31.1537 33.3936C31.1957 33.4377 31.2767 33.4482 31.3439 33.4651C31.3859 33.4756 31.4395 33.464 31.4836 33.4714C31.5246 33.4777 31.5971 33.4966 31.594 33.5102C31.5782 33.568 31.5509 33.6395 31.5047 33.6815C31.3912 33.7855 31.2661 33.879 31.1411 33.9694C31.1001 33.9988 31.0413 34.0146 30.994 34.0209C30.8154 34.0419 30.642 34.0367 30.4571 34.0966C30.3825 34.1207 30.3068 34.1239 30.2322 34.1302C30.1072 34.1417 29.9832 34.1417 29.8571 34.1606C29.7026 34.1838 29.5534 34.1606 29.3916 34.2353C29.3748 34.2437 29.3548 34.2447 29.337 34.2458C29.1646 34.2531 28.9944 34.2521 28.82 34.2689C28.7328 34.2773 28.6393 34.3151 28.5489 34.3382C28.51 34.3477 28.4701 34.3592 28.4333 34.3603C28.2473 34.3666 28.0624 34.3655 27.8754 34.374C27.8176 34.3761 27.7535 34.3908 27.6946 34.4149C27.5139 34.4895 27.3437 34.5063 27.1766 34.4927C27.1136 34.4874 27.0484 34.4843 26.9843 34.4832C26.79 34.4811 26.5945 34.4748 26.3865 34.5641C26.3802 34.5662 26.3739 34.5673 26.3686 34.5683C26.2446 34.5757 26.1154 34.5957 25.9966 34.5851C25.8947 34.5767 25.8054 34.5337 25.7098 34.5074C25.5721 34.4696 25.4334 34.4338 25.2968 34.3939C25.2464 34.3792 25.1802 34.3666 25.1581 34.3288C25.1077 34.2405 25.011 34.2174 24.927 34.1733C24.8797 34.148 24.8471 34.0924 24.8335 34.0388C24.8198 33.9894 24.866 33.9442 24.9312 33.9274C25.0636 33.8927 25.196 33.8528 25.3284 33.8234C25.4156 33.8034 25.5017 33.7981 25.5606 33.7897L25.5574 33.7908Z" fill="#003279"/>
<path d="M39.9486 29.0088C39.8687 29.2074 39.8256 29.3881 39.7248 29.5468C39.5735 29.7821 39.5251 30.0217 39.4253 30.2581C39.3433 30.4515 39.2603 30.6501 39.1101 30.8297C39.0008 30.9611 38.9703 31.1113 38.9293 31.2563C38.8926 31.3856 38.8243 31.5043 38.7497 31.6262C38.673 31.7502 38.612 31.8805 38.5406 32.0066C38.4712 32.1295 38.3956 32.2514 38.3252 32.3754C38.2821 32.4511 38.2337 32.5267 38.2054 32.6034C38.1591 32.7316 38.0845 32.8461 37.9847 32.9512C37.8881 33.0531 37.8891 33.1666 37.8345 33.2727C37.7935 33.3536 37.7725 33.4535 37.6506 33.4965C37.5392 33.5354 37.472 33.4923 37.4047 33.4503C37.3564 33.4198 37.3227 33.3726 37.2776 33.3389C37.1609 33.2528 37.0895 33.1466 37.1494 32.9659C37.1693 32.906 37.1767 32.8377 37.163 32.7873C37.1305 32.6707 37.2187 32.5708 37.286 32.4721C37.3711 32.347 37.3406 32.2178 37.2051 32.2209C37.079 32.2241 36.9497 32.2356 36.8205 32.2556C36.7711 32.263 36.7186 32.3092 36.666 32.3281C36.6208 32.3449 36.5736 32.3512 36.5263 32.3596C36.3571 32.3901 36.1879 32.4164 36.0177 32.4511C35.8506 32.4857 35.6846 32.5141 35.5323 32.4878C35.4902 32.4805 35.4566 32.4363 35.4409 32.3964C35.3778 32.243 35.3137 32.0896 35.4072 31.8857C35.4388 31.8164 35.5123 31.7597 35.5869 31.7471C35.6647 31.7344 35.7445 31.7071 35.8233 31.6872C35.879 31.6724 35.941 31.642 35.9904 31.6472C36.2415 31.6703 36.4948 31.6115 36.7532 31.4886C36.7732 31.4791 36.7963 31.4707 36.8142 31.4718C36.9445 31.477 37.0695 31.4444 37.2051 31.3698C37.3238 31.3047 37.4551 31.2679 37.5823 31.228C37.6884 31.1944 37.7672 31.1219 37.8198 31.0367C37.8996 30.9065 37.9627 30.7709 38.032 30.6364C38.2295 30.2508 38.2978 29.8589 38.4292 29.4711C38.4775 29.3282 38.4891 29.1853 38.5311 29.0414C38.5479 28.9836 38.5878 28.9142 38.6362 28.869C38.7644 28.7514 38.8978 28.6379 39.0386 28.536C39.0985 28.4929 39.1815 28.4845 39.254 28.4614C39.3433 28.4319 39.4348 28.412 39.5209 28.3731C39.6312 28.3237 39.6838 28.3731 39.7468 28.4151C39.7983 28.4487 39.8603 28.4719 39.9034 28.5139C39.9465 28.557 40.0001 28.6095 40.0001 28.6705C40.0001 28.7871 39.9643 28.9132 39.9475 29.0109L39.9486 29.0088Z" fill="#003279"/>
<path d="M14.658 8.48028C14.658 8.48028 16.4054 9.69389 15.8401 10.5135C15.8401 10.5135 15.321 11.0441 14.6622 11.5043C14.6622 11.5043 13.1008 12.4742 13.2048 16.3504C13.2048 16.3504 13.5053 15.0779 14.9175 14.3351C14.9175 14.3351 16.6744 13.4335 17.9721 12.0591C17.9721 12.0591 18.2852 11.7208 18.4817 12.1264C18.4817 12.1264 18.5973 13.0952 18.6319 13.6773C18.6319 13.6773 18.6235 13.7687 18.778 13.7088C18.778 13.7088 21.2336 12.5393 22.1215 10.4462C22.1215 10.4462 22.1803 10.2623 22.0017 10.2571C22.0017 10.2571 20.6031 10.7898 19.5177 10.401C19.5177 10.401 20.2953 9.83154 21.1695 7.93494C21.1695 7.93494 21.7758 6.43972 23.7344 6.73393C23.6766 6.72553 23.5873 6.64357 23.5305 6.61625C23.3582 6.52904 23.1743 6.46704 22.9915 6.41556C21.5667 6.01732 20.1103 6.59418 18.9776 7.58609C18.6634 7.86034 18.3724 8.24071 18.0351 8.47397C18.0351 8.47397 17.5286 9.0687 16.5462 8.38991C16.5462 8.38991 15.6951 7.63968 14.6569 8.48028H14.658Z" fill="#B69235"/>
<path d="M26.0439 14.7481C25.6531 14.4591 25.0268 14.1418 24.6359 13.8791C26.6208 15.947 27.7346 17.8751 26.957 18.7409C25.7529 20.0827 22.1425 18.5066 17.7956 15.6601C17.7493 15.6296 17.701 15.5876 17.6569 15.554C18.6803 16.7581 20.0893 18.0663 21.7653 19.3062C26.0681 22.49 30.5117 24.0514 31.6938 22.7915C32.8749 21.5327 30.3468 17.9318 26.045 14.7481H26.0439Z" fill="#51AF49"/>
<path d="M36.231 1.90683C35.5806 -0.134779 31.3082 -0.773634 25.4797 1.1692C21.9923 2.33133 18.653 4.21427 16.7921 5.62228C17.9879 4.93509 19.5829 4.3162 21.2273 3.74144C25.5858 2.2189 29.3727 1.92469 30.0494 3.53129C30.7261 5.14103 27.9563 7.38859 23.5421 9.46697C23.5075 9.48378 23.4696 9.48904 23.4339 9.49954C25.1676 9.11917 27.1178 8.68311 28.6172 8.13672C34.8345 5.87025 36.8824 3.95053 36.232 1.90578L36.231 1.90683Z" fill="#0E6BAF"/>
<path fill-rule="evenodd" clip-rule="evenodd" d="M8.40391 31.4381C8.35978 31.5106 8.36609 31.54 8.44174 31.5737C8.64348 31.6619 8.83472 31.7691 9.01335 31.8973C9.11842 31.973 9.23401 32.0392 9.3002 32.1621C9.32122 32.202 9.3727 32.2283 9.41473 32.2546C9.52611 32.3229 9.55974 32.4195 9.49774 32.5383C9.4389 32.6517 9.37376 32.7631 9.30546 32.8724C9.27393 32.9228 9.2298 32.9638 9.19198 33.01C9.19513 33.0163 9.19933 33.0227 9.20248 33.0279C9.24977 33.0227 9.2981 33.0185 9.34538 33.0111C9.47253 32.9901 9.59967 32.968 9.72681 32.9449C9.77199 32.9365 9.79405 32.9071 9.7888 32.8598C9.74677 32.4899 9.77514 32.1211 9.81612 31.7533C9.84974 31.4497 9.89913 31.1481 9.94326 30.8466C9.97268 30.648 10.0011 30.4483 10.041 30.2508C10.0651 30.131 10.1082 30.0165 10.1429 29.8988C10.1713 29.8063 10.2017 29.7138 10.2291 29.6203C10.2459 29.5657 10.3068 29.51 10.3646 29.5026C10.4045 29.4974 10.4434 29.4858 10.4833 29.4858C10.684 29.4858 10.8837 29.4837 11.0844 29.4942C11.2084 29.5005 11.2966 29.5888 11.388 29.6645C11.491 29.7506 11.5015 29.9597 11.3271 30.0343C11.3145 30.0396 11.2966 30.0469 11.2914 30.0585C11.2252 30.1919 11.1117 30.2991 11.0802 30.4536C11.0497 30.5996 10.9961 30.7404 10.9551 30.8844C10.9352 30.9558 10.9436 30.9663 11.0182 30.9569C11.1642 30.939 11.3113 30.9169 11.4574 30.8949C11.7096 30.8581 11.9618 30.8182 12.2139 30.7825C12.3463 30.7635 12.4798 30.753 12.6132 30.7383C12.6153 30.7457 12.6185 30.753 12.6206 30.7593C12.6069 30.7677 12.5954 30.7793 12.5806 30.7856C12.3894 30.8571 12.2318 30.9842 12.0647 31.0956C12.0343 31.1155 12.0153 31.1544 11.9849 31.1712C11.8745 31.2322 11.7611 31.2868 11.6507 31.3478C11.615 31.3677 11.5877 31.4024 11.5562 31.4297C11.5593 31.435 11.5625 31.4402 11.5656 31.4455C11.5803 31.4455 11.595 31.4476 11.614 31.4486C11.6087 31.4581 11.6055 31.4654 11.6003 31.4707C11.5782 31.4928 11.5583 31.5169 11.533 31.5337C11.4795 31.5695 11.4217 31.5915 11.3975 31.6661C11.3828 31.7103 11.3197 31.7365 11.2819 31.7744C11.2367 31.8206 11.2052 31.8805 11.1327 31.892C11.1285 31.892 11.1222 31.9005 11.1212 31.9057C11.1022 31.9971 11.0192 32.0129 10.952 32.0455C10.8469 32.0959 10.7544 32.1589 10.725 32.2787C10.7072 32.3533 10.704 32.4311 10.6977 32.5078C10.6851 32.6601 10.6567 32.8146 10.6693 32.9649C10.683 33.1393 10.6494 33.3074 10.6473 33.4797C10.6452 33.6468 10.6452 33.8149 10.6305 33.982C10.6241 34.0608 10.5863 34.1364 10.5622 34.2132C10.5548 34.2373 10.5411 34.2604 10.5411 34.2846C10.5422 34.3666 10.4739 34.3855 10.4214 34.4138C10.4045 34.4233 10.3646 34.3981 10.3404 34.3813C10.3026 34.3561 10.2616 34.3308 10.2333 34.2962C10.0872 34.1207 9.97794 33.9252 9.89913 33.7098C9.86971 33.6289 9.86551 33.6289 9.78145 33.6542C9.64905 33.6941 9.51561 33.733 9.38531 33.7802C9.12998 33.8738 8.87465 33.9683 8.62457 34.0724C8.50899 34.1207 8.40496 34.1953 8.29464 34.2541C8.27152 34.2667 8.23684 34.2594 8.21268 34.272C8.12231 34.3182 8.0309 34.3645 7.94579 34.4201C7.74614 34.5515 7.5486 34.686 7.35316 34.8247C7.27961 34.8772 7.21867 34.9413 7.16928 35.0233C7.14196 35.0695 7.09048 35.1189 7.00327 35.1305C6.9066 35.1431 6.85721 35.058 6.7742 35.0706C6.68384 34.9834 6.55354 34.9371 6.50206 34.81C6.49365 34.789 6.47999 34.7648 6.48419 34.7448C6.51887 34.5725 6.44532 34.4149 6.42115 34.251C6.40329 34.1301 6.39383 34.0083 6.38227 33.8864C6.38122 33.8738 6.38647 33.8506 6.39488 33.8475C6.50836 33.7981 6.59032 33.693 6.72797 33.6815C6.81413 33.6741 6.89714 33.6279 6.98225 33.5995C7.12305 33.5522 7.26385 33.5007 7.4057 33.4577C7.55806 33.4125 7.71252 33.3747 7.86698 33.3358C7.93108 33.32 7.99832 33.3116 8.06242 33.2958C8.13282 33.278 8.17485 33.2307 8.19166 33.155C8.1801 33.1582 8.17065 33.1603 8.1696 33.1603C8.20112 33.0227 8.29253 32.9008 8.30619 32.7442C8.07608 32.7726 7.88379 32.8503 7.72828 33.0111C7.70727 33.0321 7.67574 33.0521 7.64843 33.0542C7.56437 33.0615 7.47715 33.0731 7.39625 33.0584C7.31008 33.0426 7.27751 32.9607 7.23443 32.8882C7.16718 32.7768 7.14722 32.6528 7.09993 32.5372C7.06316 32.4489 7.10729 32.3754 7.14827 32.3039C7.23653 32.1495 7.3269 31.9961 7.41831 31.8427C7.43722 31.8111 7.46559 31.7838 7.48346 31.7512C7.50447 31.7134 7.51183 31.6672 7.53599 31.6325C7.57382 31.5779 7.6211 31.5295 7.66419 31.478C7.66629 31.4749 7.67259 31.4738 7.67364 31.4707C7.75455 31.2837 7.91216 31.1513 8.01934 30.9821C8.02459 30.9737 8.02564 30.9632 8.033 30.9401C7.96995 30.9527 7.91637 30.9632 7.86278 30.9747C7.75455 30.9979 7.64317 31.0136 7.5381 31.0483C7.38259 31.0998 7.21972 31.0935 7.06211 31.1345C6.9066 31.1754 6.77315 31.2511 6.65126 31.3509C6.55459 31.4297 6.46528 31.5159 6.3539 31.5779C6.26774 31.6262 6.12169 31.5936 6.06495 31.5201C6.03763 31.4854 6.01871 31.4455 5.99244 31.4108C5.94306 31.3436 5.94936 31.27 5.96723 31.1964C5.98824 31.1103 6.01556 31.0252 6.03868 30.939C6.05234 30.8896 6.05969 30.8371 6.07755 30.7888C6.12274 30.6648 6.16792 30.5408 6.21941 30.4189C6.25198 30.3411 6.31607 30.2981 6.39698 30.2665C6.50101 30.2266 6.59768 30.1688 6.69645 30.1194C6.73322 30.1005 6.77 30.0816 6.81728 30.0574C6.82043 30.0942 6.82254 30.1215 6.82569 30.1552C6.84986 30.152 6.87402 30.1489 6.89819 30.1447C7.14932 30.0963 7.40045 30.049 7.65158 30.0007C7.71462 29.9891 7.78607 30.0123 7.83651 29.9503C7.84176 29.944 7.86068 29.9492 7.87223 29.9482C8.04246 29.9482 8.21268 29.9482 8.3829 29.9471C8.4575 29.9471 8.5321 29.945 8.60671 29.9429C8.67711 29.9408 8.74751 29.9282 8.81686 29.9366C8.90827 29.9471 9.00809 29.9198 9.0869 29.9944C9.14995 30.0532 9.21614 30.1079 9.27919 30.1678C9.29075 30.1783 9.2918 30.2014 9.296 30.2182C9.31071 30.2844 9.32437 30.3516 9.33908 30.4178C9.34118 30.4284 9.34538 30.4389 9.34433 30.4483C9.32647 30.5692 9.39477 30.669 9.4305 30.774C9.47883 30.918 9.37691 31.0798 9.22455 31.0651C9.06799 31.0504 8.92403 31.0966 8.78008 31.1397C8.72334 31.1565 8.67396 31.2038 8.62562 31.2427C8.54892 31.3057 8.47642 31.374 8.40286 31.4392C8.41547 31.4087 8.42703 31.3782 8.44069 31.3425C8.35663 31.3688 8.32301 31.415 8.34192 31.4749C8.36293 31.4623 8.38395 31.4497 8.40391 31.4371V31.4381ZM7.76296 32.3691C7.76821 32.3743 7.77451 32.3785 7.77977 32.3838C7.80183 32.3733 7.8239 32.3607 7.84597 32.3523C8.0351 32.2787 8.22529 32.2052 8.41442 32.1327C8.47326 32.1106 8.48902 32.0759 8.4512 32.0265C8.39656 31.9561 8.33667 31.8889 8.28098 31.8195C8.25576 31.788 8.23369 31.7523 8.20532 31.7113C8.0309 31.9152 7.90901 32.1505 7.76191 32.3691H7.76296Z" fill="#0055A7"/>
<path fill-rule="evenodd" clip-rule="evenodd" d="M21.3356 33.2297C21.2631 33.2065 21.1916 33.1813 21.1191 33.1603C20.9657 33.1151 20.8155 33.1109 20.6631 33.1729C20.6137 33.1929 20.5538 33.1897 20.4992 33.1992C20.2533 33.2391 20.0453 33.1488 19.8446 33.0174C19.6933 32.9186 19.5357 32.8304 19.378 32.7411C19.3497 32.7253 19.3087 32.7327 19.2719 32.7285C19.2719 32.7316 19.274 32.7137 19.2761 32.6948C19.2677 32.6927 19.2583 32.6875 19.2551 32.6896C19.233 32.7074 19.2036 32.7232 19.1942 32.7474C19.1343 32.8955 19.0807 33.0458 19.0229 33.195C18.9819 33.298 18.9367 33.3988 18.8831 33.4976C18.8947 33.4577 18.9063 33.4177 18.9178 33.3778C18.9157 33.3768 18.9126 33.3747 18.9105 33.3736C18.881 33.4209 18.8579 33.4734 18.8222 33.5144C18.7213 33.6332 18.6152 33.7466 18.5133 33.8633C18.4881 33.8927 18.4702 33.9284 18.4471 33.961C18.3914 34.0377 18.3399 34.1175 18.2748 34.1858C18.2527 34.209 18.197 34.21 18.1581 34.2058C18.1066 34.2006 18.0572 34.1753 18.0058 34.1669C17.866 34.1449 17.7368 33.9789 17.7084 33.8181C17.6254 33.3526 17.7305 32.9123 17.8671 32.4752C17.9322 32.2651 17.9974 32.0549 18.0657 31.8469C18.0888 31.7744 18.1255 31.7061 18.1539 31.6357C18.2117 31.4896 18.2663 31.3425 18.3273 31.1986C18.3704 31.0956 18.425 30.9968 18.4691 30.8938C18.4996 30.8224 18.5227 30.7478 18.549 30.6742C18.5532 30.6637 18.5543 30.6511 18.5595 30.6417C18.5921 30.5902 18.6268 30.5408 18.6604 30.4904C18.7339 30.379 18.8148 30.2718 18.88 30.1552C18.9304 30.0648 18.9861 29.9881 19.066 29.9188C19.1364 29.8589 19.2005 29.8704 19.2709 29.8851C19.3465 29.9009 19.4201 29.9293 19.4947 29.9492C19.5178 29.9555 19.543 29.9524 19.5672 29.9534C19.6659 29.9576 19.7647 29.9639 19.8635 29.965C19.8919 29.965 19.9213 29.9513 19.9507 29.9429C20.0505 29.9135 20.1472 29.9314 20.2418 29.966C20.3216 29.9955 20.4046 30.0165 20.4803 30.0532C20.5591 30.0921 20.6326 30.1447 20.7072 30.193C20.7461 30.2182 20.7818 30.2476 20.8186 30.275C20.9048 30.338 20.9468 30.4273 20.9573 30.5303C20.9626 30.5891 20.8974 30.6658 20.8228 30.6826C20.6358 30.7236 20.4992 30.8371 20.3763 30.9727C20.3636 30.9863 20.3353 30.9853 20.3143 30.9916C20.3006 30.9958 20.2827 30.9979 20.2733 31.0084C20.1125 31.187 19.9518 31.3667 19.792 31.5474C19.771 31.5716 19.7563 31.601 19.7395 31.6294C19.7164 31.6672 19.7195 31.6998 19.7511 31.7366C19.8204 31.8164 19.895 31.8942 19.9507 31.9835C20.0642 32.1642 20.246 32.2693 20.3962 32.409C20.4593 32.4668 20.5255 32.5225 20.5938 32.574C20.6558 32.6202 20.7262 32.6549 20.7871 32.7011C20.8606 32.7568 20.9321 32.8157 21.0004 32.8787C21.1107 32.9817 21.2179 33.0878 21.3261 33.1929C21.3335 33.2002 21.3398 33.2097 21.3461 33.2192C21.3429 33.2234 21.3398 33.2276 21.3366 33.2307L21.3356 33.2297Z" fill="#0055A7"/>
<path fill-rule="evenodd" clip-rule="evenodd" d="M22.3044 34.1186C22.2855 34.107 22.2739 34.0986 22.2466 34.0818C22.234 34.1564 22.2235 34.2237 22.2077 34.314C22.1667 34.2731 22.1226 34.2468 22.1068 34.209C22.0512 34.0724 22.0028 33.9326 21.9576 33.7918C21.9303 33.7057 21.8967 33.6216 21.9062 33.5249C21.9135 33.4545 21.9062 33.3778 21.883 33.3116C21.8379 33.1761 21.8526 33.0363 21.8358 32.8987C21.8221 32.7905 21.8347 32.678 21.8294 32.5677C21.8263 32.4857 21.8084 32.4048 21.8063 32.3229C21.8011 32.1316 21.8053 31.9404 21.8 31.7492C21.7916 31.4297 21.821 31.1124 21.8599 30.7972C21.882 30.6186 21.9146 30.441 21.945 30.2634C21.9776 30.0722 22.0133 29.8809 22.0501 29.6907C22.0722 29.5752 22.0974 29.4606 22.1205 29.345C22.1247 29.3251 22.1321 29.3041 22.13 29.2841C22.1163 29.1559 22.1993 29.0866 22.2939 29.0319C22.3296 29.0109 22.3842 29.0193 22.4294 29.0204C22.5702 29.0225 22.7131 29.0151 22.8518 29.0351C22.9348 29.0466 23.0126 29.0992 23.0914 29.137C23.1303 29.1559 23.1702 29.178 23.2038 29.2063C23.2952 29.2809 23.3142 29.3387 23.2627 29.4501C23.1723 29.6456 23.0735 29.8368 22.979 30.0301C22.9569 30.0753 22.9443 30.1268 22.9201 30.1709C22.8203 30.3506 22.7741 30.5461 22.7394 30.7446C22.7068 30.9264 22.6858 31.1114 22.6564 31.2942C22.6364 31.415 22.6081 31.5338 22.5891 31.6546C22.5639 31.8238 22.545 31.994 22.5219 32.1642C22.4935 32.3723 22.4694 32.5803 22.4368 32.7883C22.3769 33.1708 22.3096 33.5512 22.3212 33.941C22.3222 33.9978 22.3117 34.0556 22.3065 34.1207L22.3044 34.1186Z" fill="#0055A7"/>
<path fill-rule="evenodd" clip-rule="evenodd" d="M8.57315 29.4774C8.54057 29.49 8.508 29.5089 8.47333 29.5152C8.40923 29.5278 8.34408 29.5373 8.27894 29.5394C8.0152 29.5499 7.75146 29.5552 7.48772 29.5688C7.43413 29.572 7.37845 29.594 7.32906 29.6182C7.18511 29.6876 7.02014 29.613 6.97286 29.4574C6.93293 29.3272 6.91717 29.1948 6.94659 29.0645C6.98021 28.9174 7.00228 28.7608 7.12627 28.6505C7.1725 28.6095 7.22188 28.5937 7.28388 28.5927C7.40892 28.5906 7.53396 28.5864 7.65794 28.5717C7.92484 28.5391 8.18122 28.5738 8.42814 28.6788C8.56054 28.7345 8.65616 28.8365 8.73496 28.9531C8.77489 29.013 8.81587 29.0739 8.8579 29.1328C8.88522 29.1716 8.87366 29.2021 8.83163 29.2053C8.65616 29.2189 8.63304 29.365 8.5742 29.4764L8.57315 29.4774Z" fill="#0055A7"/>
<path fill-rule="evenodd" clip-rule="evenodd" d="M3.53795 33.1498C3.40766 33.2969 3.28051 33.4461 3.14497 33.588C3.10609 33.629 3.04515 33.651 2.99366 33.6783C2.92116 33.7172 2.84656 33.7477 2.7625 33.7645C2.62275 33.7929 2.54184 33.7204 2.46408 33.63C2.38633 33.5396 2.31067 33.4482 2.23712 33.3558C2.21505 33.3284 2.20245 33.2927 2.18879 33.2675C2.28335 33.2045 2.37372 33.1488 2.45778 33.0857C2.52398 33.0363 2.57651 32.9701 2.64376 32.9218C2.87387 32.7579 2.95373 32.492 3.09663 32.2693C3.17964 32.14 3.25214 32.0045 3.32675 31.87C3.34566 31.8353 3.35722 31.7954 3.37088 31.7618C3.28997 31.7796 3.21642 31.7975 3.14287 31.8112C3.06826 31.8238 2.99051 31.8238 2.91801 31.8427C2.65322 31.9131 2.38948 31.9887 2.12469 32.0633C2.0627 32.0812 2.00175 32.1043 1.93976 32.1201C1.59301 32.2062 1.23471 32.3649 0.938394 32.5666C0.845929 32.6297 0.755564 32.6959 0.66625 32.7631C0.652591 32.7736 0.641032 32.7915 0.634728 32.8083C0.607408 32.884 0.546465 32.9313 0.486572 32.9785C0.470811 32.9911 0.438238 32.9933 0.417223 32.9869C0.319503 32.9607 0.242798 32.8997 0.182906 32.8199C0.117759 32.7316 0.0788815 32.6391 0.0841353 32.5215C0.0883383 32.4269 0.047359 32.3313 0.0347501 32.2346C0.0179381 32.1075 0.00427832 31.9782 7.53252e-05 31.85C-0.00202617 31.7849 0.0400038 31.766 0.106201 31.7481C0.203921 31.7218 0.297437 31.6809 0.394106 31.6472C0.617916 31.5695 0.840675 31.4865 1.06764 31.4171C1.31456 31.3415 1.56359 31.2721 1.81472 31.2133C2.17092 31.1303 2.53028 31.0557 2.88964 30.9842C3.0525 30.9516 3.21852 30.9317 3.38454 30.9107C3.46335 30.9002 3.54425 30.8991 3.62411 30.8949C3.67665 30.8918 3.70922 30.8665 3.71342 30.8182C3.79538 30.8024 3.87314 30.7846 3.95089 30.7741C4.03705 30.7625 4.12532 30.7667 4.20938 30.7489C4.25981 30.7373 4.30394 30.6963 4.35228 30.67C4.37119 30.6595 4.39641 30.6406 4.41322 30.6448C4.48257 30.6637 4.55402 30.6816 4.61497 30.7173C4.70533 30.7699 4.78729 30.8371 4.87345 30.897C4.89657 30.9128 4.92494 30.9222 4.95016 30.9359C5.06259 30.9968 5.11302 31.1082 5.17607 31.2091C5.18868 31.2301 5.18868 31.2669 5.17922 31.291C5.1498 31.3688 5.10462 31.4329 5.02476 31.4697C4.99534 31.4833 4.97432 31.5148 4.95016 31.539C4.89131 31.5979 4.83247 31.6556 4.77573 31.7166C4.75367 31.7408 4.70533 31.7576 4.74001 31.8059C4.74316 31.8101 4.7337 31.8248 4.7274 31.8322C4.68432 31.8763 4.64018 31.9194 4.59605 31.9625C4.4563 32.1033 4.31235 32.2399 4.17785 32.387C4.07803 32.4962 3.99397 32.6202 3.89836 32.7337C3.79328 32.8567 3.68295 32.9754 3.57578 33.0962C3.56106 33.113 3.54951 33.1341 3.5369 33.153L3.53795 33.1498Z" fill="#0055A7"/>
<path fill-rule="evenodd" clip-rule="evenodd" d="M4.29554 29.6224C4.48993 29.5762 4.68537 29.5688 4.88291 29.593C4.97117 29.6035 5.06048 29.6046 5.14875 29.6119C5.24121 29.6203 5.26013 29.6529 5.20128 29.7222C5.15295 29.78 5.08465 29.82 5.02896 29.8736C4.91968 29.9786 4.78204 30.0448 4.66225 30.1331C4.56978 30.2024 4.47206 30.2224 4.36699 30.2413C4.3134 30.2508 4.26402 30.2844 4.21043 30.3002C4.00763 30.359 3.80169 30.4094 3.60099 30.4735C3.4707 30.5156 3.34671 30.5755 3.21852 30.6269C3.17649 30.6438 3.13341 30.6627 3.08928 30.669C3.00417 30.6805 2.94638 30.6385 2.90645 30.5628C2.8329 30.4242 2.7751 30.2802 2.74989 30.1247C2.73097 30.0123 2.76355 29.9734 2.87493 29.9555C2.92851 29.9471 2.98105 29.9324 3.03254 29.9166C3.14812 29.8809 3.2616 29.841 3.37718 29.8042C3.43392 29.7863 3.47595 29.7569 3.50538 29.7033C3.58523 29.5552 3.66929 29.4091 3.7481 29.261C3.76701 29.2263 3.77647 29.1853 3.79433 29.1328C3.71658 29.1401 3.65458 29.1475 3.59259 29.1517C3.4749 29.159 3.35722 29.1601 3.24059 29.1696C3.07142 29.1832 2.90225 29.199 2.73413 29.22C2.68159 29.2263 2.63535 29.2505 2.63115 29.3177C2.61329 29.5531 2.58702 29.7884 2.57546 30.0249C2.57231 30.0995 2.60278 30.1762 2.62064 30.2518C2.63535 30.3117 2.61014 30.3748 2.55445 30.4084C2.54289 30.4157 2.53553 30.4294 2.52608 30.4399C2.49666 30.4683 2.47249 30.5051 2.421 30.483C2.40839 30.4777 2.38528 30.483 2.37372 30.4914C2.29806 30.5492 2.21085 30.5397 2.12679 30.5324C2.01856 30.5229 1.91769 30.4819 1.83363 30.4147C1.76533 30.3601 1.73171 30.2791 1.72015 30.1909C1.71595 30.1583 1.71385 30.1247 1.70334 30.0932C1.62243 29.8536 1.58461 29.6067 1.56884 29.3566C1.54678 29.0225 1.53522 28.6883 1.51421 28.3552C1.51105 28.2995 1.48899 28.2417 1.46587 28.1903C1.43225 28.1167 1.47848 28.0652 1.51526 28.0242C1.55729 27.978 1.62348 27.9517 1.67917 27.9171C1.68233 27.915 1.68758 27.9139 1.69073 27.9139C1.74957 27.9223 1.80842 27.9286 1.86621 27.9402C1.91349 27.9507 1.95867 27.9696 2.00491 27.9822C2.11839 28.0127 2.23292 28.0411 2.3464 28.0715C2.38212 28.081 2.42415 28.0883 2.44727 28.1125C2.50926 28.1776 2.59753 28.1671 2.67003 28.1987C2.72782 28.2239 2.78036 28.2449 2.80347 28.3079C2.80978 28.3248 2.82134 28.3437 2.835 28.3531C2.90119 28.4015 2.92746 28.4614 2.90855 28.5423C2.9054 28.5538 2.92326 28.5822 2.93167 28.5832C3.00732 28.5864 3.08402 28.5937 3.15863 28.5832C3.28892 28.5664 3.41816 28.5381 3.54846 28.5149C3.63882 28.4992 3.73024 28.4824 3.82165 28.4719C4.04966 28.4445 4.21568 28.5339 4.32496 28.7356C4.36699 28.8134 4.42583 28.8827 4.46156 28.9636C4.48467 29.0172 4.50044 29.0897 4.48362 29.1412C4.43949 29.2725 4.3754 29.3965 4.31866 29.5237C4.30605 29.551 4.29449 29.5793 4.28188 29.6067C4.28608 29.6119 4.29029 29.6161 4.29449 29.6214L4.29554 29.6224Z" fill="#0055A7"/>
<path fill-rule="evenodd" clip-rule="evenodd" d="M1.17895 32.9785C1.24094 33.0164 1.29663 33.0458 1.34707 33.0815C1.40276 33.1214 1.43533 33.1761 1.4532 33.2444C1.47631 33.3337 1.49943 33.4262 1.54041 33.5081C1.56668 33.5607 1.62026 33.6027 1.66755 33.6426C1.79154 33.7466 1.91658 33.8517 2.07419 33.9022C2.17821 33.9347 2.28644 33.9578 2.39467 33.9736C2.51235 33.9904 2.63109 34.0041 2.74877 34.0009C2.83808 33.9978 2.9274 33.9662 3.01566 33.9442C3.1407 33.9137 3.26364 33.879 3.38868 33.8507C3.41179 33.8454 3.43911 33.8591 3.46433 33.8622C3.48219 33.8643 3.50216 33.8685 3.51687 33.8622C3.66187 33.8065 3.80582 33.7498 3.94978 33.691C4.06326 33.6447 4.17674 33.6006 4.28707 33.548C4.3995 33.4945 4.50982 33.4356 4.61595 33.3705C4.71577 33.3085 4.81139 33.2391 4.90386 33.1677C4.94378 33.1362 4.97531 33.0931 5.00578 33.0521C5.01313 33.0416 4.99842 33.0153 5.00578 33.0038C5.0415 32.9397 5.09194 32.8882 5.16339 32.8546C5.16865 32.9176 5.20017 32.9533 5.26216 32.9607C5.23799 33.0742 5.27372 33.1698 5.34202 33.2591C5.35568 33.277 5.35883 33.3043 5.36514 33.3284C5.38405 33.3967 5.40927 33.464 5.41767 33.5344C5.42923 33.6342 5.34832 33.7004 5.30419 33.7782C5.2401 33.8916 5.16549 33.9988 5.06462 34.0871C4.91857 34.2163 4.77882 34.3529 4.59283 34.4265C4.37218 34.5126 4.14837 34.5925 3.92981 34.6829C3.76905 34.7491 3.60933 34.8226 3.45592 34.9046C3.29726 34.9886 3.1407 35.0286 2.96102 34.9718C2.84018 34.934 2.71199 34.9224 2.58695 34.8993C2.55648 34.893 2.52601 34.8867 2.49764 34.8772C2.39151 34.8447 2.28434 34.8153 2.18031 34.7753C2.00694 34.7091 1.83777 34.6324 1.66334 34.5694C1.48051 34.5032 1.33866 34.3781 1.1863 34.2657C1.12851 34.2226 1.08018 34.1669 1.02659 34.1186C1.00032 34.0955 0.9688 34.0776 0.944632 34.0535C0.861623 33.9694 0.818542 33.858 0.821695 33.7487C0.824847 33.6142 0.835354 33.4745 0.929922 33.3568C0.992967 33.2791 1.02974 33.1813 1.08333 33.0952C1.1096 33.0521 1.14743 33.0164 1.17895 32.9785Z" fill="#0055A7"/>
<path fill-rule="evenodd" clip-rule="evenodd" d="M3.53687 33.1508C3.57364 33.1193 3.61042 33.0878 3.64719 33.0563C3.61672 33.1519 3.59045 33.174 3.53792 33.1498L3.53687 33.1508Z" fill="#0055A7"/>
<path d="M29.4568 9.41443C27.6032 9.27783 25.341 9.41443 23.8174 9.48798C28.9135 9.74016 32.2822 10.7184 32.2339 11.9804C32.1961 12.9975 28.9944 13.775 24.3564 13.8129C25.859 14.1071 27.4425 14.2657 29.2781 14.4013C35.1602 14.8342 38.5468 13.9894 38.5846 12.6728C38.6214 11.3583 35.3399 9.84734 29.4578 9.41338L29.4568 9.41443Z" fill="#DD2825"/>
<path d="M17.3879 15.8912C14.5361 19.0088 10.7976 20.3622 9.03862 18.9174C7.27862 17.4716 8.16335 13.774 11.0161 10.6575C11.1958 10.461 11.4354 10.2603 11.6224 10.0785C10.4246 10.8802 9.15315 11.931 8.0215 13.1677C4.33337 17.1984 2.93902 21.7765 4.90708 23.3936C6.87513 25.0086 11.4606 23.051 15.1487 19.0214C16.2047 17.8677 17.0432 16.7161 17.6978 15.556C17.5875 15.6842 17.5045 15.7651 17.3879 15.8923V15.8912Z" fill="#A72283"/>
<path d="M6.92979 6.07515C7.431 4.53264 11.8526 4.24369 16.7596 5.37535C15.589 4.88885 14.1232 4.43493 12.6658 4.07767C7.49299 2.80837 2.87705 3.07736 2.35588 4.6808C1.83471 6.28214 5.6048 8.6106 10.7776 9.87991C11.1139 9.96292 11.3976 10.0249 11.6308 10.0753C8.50486 8.83231 6.54522 7.25724 6.92979 6.07515Z" fill="#F5C41F"/>
</svg>
