<?xml version="1.0" standalone="no"?>
<!DOCTYPE svg PUBLIC "-//W3C//DTD SVG 20010904//EN"
 "http://www.w3.org/TR/2001/REC-SVG-20010904/DTD/svg10.dtd">
<svg version="1.0" xmlns="http://www.w3.org/2000/svg"
 width="434.000000pt" height="140.000000pt" viewBox="0 0 434.000000 140.000000"
 preserveAspectRatio="xMidYMid meet">

<g transform="translate(0.000000,140.000000) scale(0.100000,-0.100000)"
fill="#000000" stroke="none">
<path d="M558 1203 c-3 -24 -8 -28 -40 -31 -30 -3 -38 -7 -38 -23 0 -16 7 -19
40 -19 29 0 40 -4 40 -15 0 -11 -12 -15 -45 -15 -38 0 -45 -3 -45 -20 0 -17 7
-20 41 -20 32 0 42 -4 46 -20 3 -13 14 -20 29 -20 24 0 24 1 24 105 0 105 0
105 -24 105 -19 0 -25 -6 -28 -27z"/>
<path d="M1300 1206 c0 -27 -43 -74 -76 -82 -20 -5 -22 -9 -13 -25 14 -27 43
-23 83 12 l35 30 38 -25 c21 -14 45 -26 54 -26 19 0 36 33 20 38 -35 12 -76
51 -79 75 -3 22 -8 27 -33 27 -24 0 -29 -4 -29 -24z"/>
<path d="M1490 1105 l0 -125 25 0 25 0 0 125 0 125 -25 0 -25 0 0 -125z"/>
<path d="M1910 1015 l0 -215 25 0 25 0 0 215 0 215 -25 0 -25 0 0 -215z"/>
<path d="M2300 1075 l0 -155 25 0 c23 0 24 3 27 73 l3 72 33 3 c24 2 32 8 32
23 0 15 -7 19 -35 19 l-35 0 0 60 c0 57 -1 60 -25 60 l-25 0 0 -155z"/>
<path d="M3230 1124 l0 -105 28 3 c23 3 27 8 30 41 3 34 6 37 33 37 22 0 29 5
29 20 0 16 -7 20 -30 20 -29 0 -30 2 -30 45 0 43 -1 45 -30 45 l-30 0 0 -106z"/>
<path d="M3650 1110 l0 -120 25 0 c23 0 25 3 25 50 0 49 1 50 30 50 23 0 30 4
30 20 0 16 -7 20 -30 20 -29 0 -30 1 -30 50 0 47 -2 50 -25 50 l-25 0 0 -120z"/>
<path d="M4080 1175 l0 -55 -55 0 c-48 0 -55 -2 -55 -20 0 -18 7 -20 55 -20
l55 0 0 -80 c0 -79 0 -80 25 -80 l25 0 0 155 0 155 -25 0 c-24 0 -25 -3 -25
-55z"/>
<path d="M2519 1197 c-43 -29 -50 -69 -18 -103 62 -66 250 -49 274 25 10 32
-13 71 -50 86 -19 8 -65 15 -103 15 -55 0 -76 -5 -103 -23z m176 -29 c31 -14
32 -43 3 -60 -34 -18 -124 -14 -148 7 -22 20 -16 43 14 55 31 13 101 12 131
-2z"/>
<path d="M280 1190 c0 -18 7 -20 65 -20 49 0 65 -3 65 -14 0 -21 -73 -82 -114
-96 -26 -8 -36 -16 -32 -27 3 -8 6 -17 6 -19 0 -11 45 -2 80 16 65 33 120 103
120 153 l0 27 -95 0 c-88 0 -95 -1 -95 -20z"/>
<path d="M2991 1184 c-26 -21 -31 -33 -31 -68 0 -53 21 -82 68 -96 87 -26 164
41 141 123 -19 68 -119 91 -178 41z m111 -31 c24 -22 24 -69 -1 -83 -63 -33
-121 30 -74 82 20 22 51 23 75 1z"/>
<path d="M3425 1196 c-56 -24 -73 -104 -32 -151 43 -51 157 -41 187 14 5 11
10 31 10 45 0 82 -82 128 -165 92z m89 -47 c30 -23 33 -45 10 -77 -28 -41
-104 -18 -104 32 0 26 9 39 35 54 27 15 28 15 59 -9z"/>
<path d="M2030 1100 l0 -100 100 0 100 0 0 100 0 100 -100 0 -100 0 0 -100z
m150 0 l0 -60 -50 0 -50 0 0 53 c0 30 3 57 7 60 3 4 26 7 50 7 l43 0 0 -60z"/>
<path d="M3800 1088 l0 -111 107 6 c108 6 128 13 118 38 -5 12 -19 14 -83 7
-42 -4 -81 -3 -85 1 -4 4 -7 35 -5 67 l3 59 73 3 c64 3 72 5 72 22 0 19 -7 20
-100 20 l-100 0 0 -112z"/>
<path d="M710 1170 c0 -18 8 -20 123 -22 l122 -3 3 -26 c3 -23 -1 -27 -35 -32
-21 -4 -80 -7 -131 -7 -91 0 -93 -1 -90 -22 3 -22 6 -23 98 -20 52 2 108 5
124 9 l29 5 -6 -51 c-6 -49 -5 -51 17 -51 31 0 36 16 43 138 l6 102 -151 0
c-145 0 -152 -1 -152 -20z"/>
<path d="M1620 1170 c0 -17 7 -20 45 -20 44 0 45 -1 45 -33 0 -44 -45 -132
-81 -157 -25 -18 -27 -24 -16 -41 6 -10 17 -19 23 -19 14 0 94 85 94 100 0 19
15 9 37 -25 13 -19 34 -42 48 -51 24 -16 27 -16 42 -1 15 15 14 19 -20 52 -46
45 -64 79 -68 130 l-4 40 43 3 c34 3 42 7 42 23 0 18 -8 19 -115 19 -108 0
-115 -1 -115 -20z"/>
<path d="M1292 1063 c-98 -3 -113 -6 -108 -19 3 -9 6 -18 6 -20 0 -2 25 -4 55
-4 54 0 55 0 55 -30 0 -23 -4 -30 -20 -30 -18 0 -20 -7 -20 -75 l0 -75 140 0
140 0 0 75 c0 73 -1 75 -25 75 -16 0 -25 -6 -25 -15 0 -12 -17 -15 -90 -15
-71 0 -90 3 -90 14 0 8 10 16 23 18 15 2 23 11 25 30 3 24 8 27 58 34 44 5 54
10 54 25 0 15 -7 19 -32 17 -18 -1 -84 -4 -146 -5z m198 -198 c0 -12 -17 -15
-90 -15 -73 0 -90 3 -90 15 0 12 17 15 90 15 73 0 90 -3 90 -15z"/>
<path d="M2434 1005 c-12 -32 7 -35 197 -35 l189 0 0 25 0 25 -190 0 c-157 0
-192 -3 -196 -15z"/>
<path d="M3170 990 c0 -17 7 -20 50 -20 43 0 50 3 50 20 0 17 -7 20 -50 20
-43 0 -50 -3 -50 -20z"/>
<path d="M324 985 c-12 -29 7 -35 122 -35 88 0 115 -3 112 -12 -3 -9 -38 -14
-116 -16 l-112 -3 0 -54 0 -55 145 0 c138 0 145 1 145 20 0 19 -7 20 -120 20
-100 0 -120 3 -120 15 0 12 19 15 115 15 l115 0 0 60 0 60 -140 0 c-114 0
-142 -3 -146 -15z"/>
<path d="M810 950 l0 -50 -70 0 c-63 0 -70 -2 -70 -20 0 -19 7 -20 195 -20
187 0 195 1 195 20 0 18 -8 20 -97 22 l-98 3 -3 48 c-3 42 -5 47 -28 47 -22 0
-24 -4 -24 -50z"/>
<path d="M2990 890 c0 -90 -4 -86 84 -74 39 6 46 10 46 29 0 21 -3 22 -34 15
-19 -4 -37 -5 -40 -2 -4 3 -6 29 -6 59 0 50 -1 53 -25 53 -25 0 -25 -1 -25
-80z"/>
<path d="M3460 940 c0 -22 -11 -41 -41 -71 -33 -33 -38 -43 -28 -55 17 -20 23
-18 64 21 34 32 39 33 58 20 18 -13 23 -13 39 1 17 16 16 17 -7 35 -13 11 -26
33 -30 49 -5 23 -12 30 -31 30 -20 0 -24 -5 -24 -30z"/>
<path d="M3620 950 c0 -30 -26 -75 -56 -99 -22 -17 -24 -23 -14 -36 18 -22 28
-19 66 19 l33 33 27 -28 c31 -32 46 -36 64 -14 10 11 5 20 -24 45 -22 20 -38
44 -42 66 -5 27 -11 34 -30 34 -18 0 -24 -6 -24 -20z"/>
<path d="M3110 940 c0 -19 7 -20 105 -20 98 0 105 1 105 20 0 19 -7 20 -105
20 -98 0 -105 -1 -105 -20z"/>
<path d="M2080 885 l0 -65 146 0 c133 0 145 1 142 18 -3 15 -18 17 -121 20
l-117 3 0 44 c0 41 -2 45 -25 45 -24 0 -25 -2 -25 -65z"/>
<path d="M3850 885 l0 -65 145 0 c138 0 145 1 145 20 0 19 -7 20 -115 20
l-115 0 0 45 c0 43 -1 45 -30 45 l-30 0 0 -65z"/>
<path d="M2480 880 l0 -60 150 0 c143 0 150 1 150 20 0 19 -7 20 -125 20
l-125 0 0 40 c0 36 -2 40 -25 40 -24 0 -25 -3 -25 -60z"/>
<path d="M3156 897 c-20 -15 -25 -62 -8 -79 19 -19 90 -22 117 -4 29 19 33 56
9 80 -19 20 -93 21 -118 3z m84 -42 c0 -16 -45 -21 -54 -6 -8 12 4 21 31 21
14 0 23 -6 23 -15z"/>
<path d="M560 500 l0 -110 25 0 25 0 0 110 0 110 -25 0 -25 0 0 -110z"/>
<path d="M970 536 l0 -75 -37 -3 c-30 -2 -38 -7 -38 -23 0 -16 8 -21 38 -23
l37 -3 0 -115 0 -114 25 0 25 0 0 215 0 215 -25 0 c-24 0 -25 -2 -25 -74z"/>
<path d="M1370 395 l0 -215 25 0 c24 0 24 1 27 108 l3 107 28 3 c19 2 27 9 27
23 0 14 -7 19 -30 19 l-30 0 0 85 c0 84 0 85 -25 85 l-25 0 0 -215z"/>
<path d="M1890 395 l0 -215 25 0 25 0 0 110 0 110 30 0 c25 0 30 4 30 25 0 21
-5 25 -30 25 l-30 0 0 80 c0 79 0 80 -25 80 l-25 0 0 -215z"/>
<path d="M2250 531 l0 -81 -30 0 c-23 0 -30 -5 -30 -19 0 -14 8 -21 28 -23
l27 -3 3 -103 c3 -100 3 -103 25 -100 22 3 22 4 22 203 0 200 0 200 -22 203
-22 3 -23 1 -23 -77z"/>
<path d="M2330 395 l0 -215 25 0 25 0 0 215 0 215 -25 0 -25 0 0 -215z"/>
<path d="M3150 395 l0 -215 25 0 25 0 0 215 0 215 -25 0 -25 0 0 -215z"/>
<path d="M270 570 c0 -19 7 -20 120 -20 113 0 120 1 120 20 0 19 -7 20 -120
20 -113 0 -120 -1 -120 -20z"/>
<path d="M690 428 l0 -151 107 7 c111 6 128 12 118 38 -5 12 -17 15 -43 12
-20 -2 -58 -5 -84 -7 l-48 -5 0 49 0 49 60 0 c53 0 60 2 60 20 0 18 -7 20 -60
20 l-60 0 0 35 0 35 70 0 c68 0 70 1 70 25 0 25 0 25 -95 25 l-95 0 0 -152z"/>
<path d="M1129 551 c-39 -39 -41 -100 -4 -136 13 -14 31 -25 40 -25 11 0 15
-11 15 -40 l0 -40 -56 0 c-47 0 -55 -3 -50 -16 3 -9 6 -18 6 -20 0 -6 159 -5
218 2 43 6 52 10 52 27 0 18 -5 19 -55 15 l-55 -5 0 39 c0 28 4 38 15 38 9 0
27 11 40 25 37 36 35 97 -4 136 -25 25 -37 29 -81 29 -44 0 -56 -4 -81 -29z
m121 -31 c11 -11 20 -28 20 -37 0 -26 -31 -53 -61 -53 -55 0 -80 64 -37 94 30
21 54 20 78 -4z"/>
<path d="M2872 558 c3 -21 9 -23 76 -26 l72 -3 0 -34 0 -35 -75 0 -75 0 0 -85
c0 -66 3 -87 15 -91 8 -3 63 -2 122 3 99 7 108 10 108 28 0 19 -5 20 -98 16
l-98 -3 3 43 3 44 73 3 72 3 0 79 0 80 -101 0 c-98 0 -100 0 -97 -22z"/>
<path d="M1630 550 c0 -17 8 -19 68 -22 65 -3 67 -4 64 -28 -2 -14 -5 -26 -6
-27 -1 -1 -35 -6 -75 -9 -66 -6 -72 -9 -69 -28 3 -19 8 -21 61 -18 32 2 57 0
57 -6 0 -10 -85 -91 -116 -109 -18 -10 -18 -12 -2 -29 16 -16 20 -16 44 -3 46
24 114 98 135 145 12 25 23 70 26 100 l6 54 -97 0 c-89 0 -96 -2 -96 -20z"/>
<path d="M2480 550 c0 -19 7 -20 121 -20 l121 0 -3 -97 c-4 -93 -3 -98 17
-101 26 -4 34 32 34 156 l0 82 -145 0 c-138 0 -145 -1 -145 -20z"/>
<path d="M2030 425 l0 -136 93 3 c84 3 92 5 92 23 0 18 -5 20 -67 16 l-68 -3
0 41 0 41 45 0 c38 0 45 3 45 20 0 17 -7 20 -45 20 -45 0 -45 0 -45 35 l0 35
60 0 c53 0 60 2 60 20 0 18 -7 20 -85 20 l-85 0 0 -135z"/>
<path d="M309 523 c-1 -4 0 -25 1 -45 1 -35 -1 -38 -24 -38 -21 0 -26 -5 -26
-26 l0 -26 103 7 c154 9 166 12 160 36 -4 15 -12 19 -32 17 -25 -3 -26 -1 -23
40 2 39 1 42 -23 42 -19 0 -25 -5 -25 -22 0 -47 -12 -68 -36 -68 -20 0 -23 6
-26 43 -2 35 -7 43 -25 45 -13 2 -23 0 -24 -5z"/>
<path d="M2580 360 l0 -70 -75 0 c-68 0 -75 -2 -75 -20 0 -19 7 -20 195 -20
188 0 195 1 195 20 0 19 -7 20 -95 20 l-95 0 0 70 c0 68 -1 70 -25 70 -24 0
-25 -2 -25 -70z"/>
<path d="M330 350 c0 -18 8 -20 112 -22 78 -2 113 -7 116 -15 3 -10 -24 -13
-112 -13 l-116 0 0 -55 0 -55 145 0 c138 0 145 1 145 20 0 19 -7 20 -120 20
-100 0 -120 3 -120 15 0 12 19 15 115 15 l115 0 0 55 0 55 -140 0 c-133 0
-140 -1 -140 -20z"/>
<path d="M3281 272 c-12 -23 4 -52 29 -52 25 0 41 30 29 53 -13 22 -46 22 -58
-1z"/>
<path d="M3390 275 c-20 -25 -8 -50 25 -50 24 0 31 5 33 24 6 37 -34 55 -58
26z"/>
<path d="M3502 281 c-8 -4 -12 -19 -10 -32 4 -33 53 -40 63 -9 11 36 -22 61
-53 41z"/>
</g>
</svg>
