<?xml version="1.0" standalone="no"?>
<!DOCTYPE svg PUBLIC "-//W3C//DTD SVG 20010904//EN"
 "http://www.w3.org/TR/2001/REC-SVG-20010904/DTD/svg10.dtd">
<svg version="1.0" xmlns="http://www.w3.org/2000/svg"
 width="330.000000pt" height="88.000000pt" viewBox="0 0 330.000000 88.000000"
 preserveAspectRatio="xMidYMid meet">

<g transform="translate(0.000000,88.000000) scale(0.100000,-0.100000)"
fill="#000000" stroke="none">
<path d="M1455 666 c-24 -17 -15 -50 14 -54 39 -6 56 39 22 57 -13 7 -23 6
-36 -3z"/>
<path d="M1560 495 l0 -175 29 0 c28 0 30 2 33 47 2 25 8 48 13 49 6 2 26 -19
45 -46 32 -45 39 -50 74 -50 29 0 36 3 29 13 -36 45 -93 127 -93 132 0 3 21
28 46 55 l47 50 -38 0 c-31 0 -43 -7 -80 -47 l-44 -48 -1 98 0 97 -30 0 -30 0
0 -175z"/>
<path d="M330 490 l0 -170 30 0 c29 0 29 0 32 68 l3 67 73 3 c69 3 72 4 72 27
0 23 -3 24 -72 27 l-73 3 0 45 0 45 78 3 c74 3 77 4 77 27 l0 25 -110 0 -110
0 0 -170z"/>
<path d="M2310 656 c0 -3 27 -51 60 -108 56 -96 60 -107 60 -165 l0 -63 30 0
30 0 0 68 c0 64 3 72 59 170 l59 102 -36 0 c-35 0 -39 -3 -76 -71 l-39 -71
-39 71 c-37 67 -42 71 -74 71 -19 0 -34 -2 -34 -4z"/>
<path d="M641 567 c-38 -19 -62 -60 -64 -108 -3 -91 40 -139 126 -139 79 0
126 64 113 154 -13 85 -101 131 -175 93z m87 -53 c18 -12 22 -25 22 -64 0 -73
-46 -105 -92 -63 -26 23 -25 96 2 123 24 24 38 25 68 4z"/>
<path d="M937 563 c-11 -11 -17 -13 -17 -5 0 7 -13 12 -30 12 l-30 0 0 -125 0
-125 30 0 30 0 0 81 c0 96 10 119 50 119 27 0 30 3 30 30 0 25 -4 30 -23 30
-12 0 -30 -8 -40 -17z"/>
<path d="M1112 564 c-12 -8 -22 -10 -22 -5 0 6 -13 11 -30 11 l-30 0 0 -125 0
-125 30 0 30 0 0 85 c0 71 3 88 20 105 20 20 47 18 62 -4 4 -6 8 -50 8 -98 l0
-88 30 0 30 0 0 85 c0 73 3 88 21 106 18 18 23 19 42 6 20 -13 22 -25 25 -106
l3 -91 29 0 30 0 0 105 c0 99 -2 107 -25 130 -30 31 -73 32 -108 5 l-26 -21
-21 21 c-24 24 -67 26 -98 4z"/>
<path d="M2020 535 l0 -45 -50 0 c-49 0 -50 -1 -50 -30 0 -29 1 -30 50 -30
l50 0 0 -45 c0 -41 2 -45 25 -45 23 0 25 4 25 45 l0 45 50 0 c49 0 50 1 50 30
0 29 -1 30 -50 30 l-50 0 0 45 c0 41 -2 45 -25 45 -23 0 -25 -4 -25 -45z"/>
<path d="M2990 573 c-8 -3 -23 -12 -32 -21 -16 -14 -18 -13 -18 1 0 12 -9 17
-30 17 l-30 0 0 -165 0 -165 30 0 c30 0 30 0 30 56 0 55 0 55 22 40 38 -27 95
-20 129 13 28 29 35 56 30 121 -6 79 -67 127 -131 103z m58 -71 c17 -22 15
-83 -4 -110 -35 -50 -97 -12 -97 60 0 68 62 99 101 50z"/>
<path d="M1440 445 l0 -125 30 0 30 0 0 125 0 125 -30 0 -30 0 0 -125z"/>
<path d="M2610 471 c0 -84 3 -102 21 -125 16 -20 29 -26 61 -26 25 0 49 7 60
17 17 15 18 15 18 0 0 -12 9 -17 30 -17 l30 0 0 125 0 125 -30 0 -30 0 0 -83
c0 -91 -13 -117 -58 -117 -32 0 -42 29 -42 119 l0 81 -30 0 -30 0 0 -99z"/>
</g>
</svg>
